<?xml version="1.0" standalone="no"?>
<!DOCTYPE svg PUBLIC "-//W3C//DTD SVG 1.1//EN" "http://www.w3.org/Graphics/SVG/1.1/DTD/svg11.dtd" >
<svg xmlns="http://www.w3.org/2000/svg">
    <defs>
        <font id="GothamBook">
            <font-face font-family="GothamBook"
                       units-per-em="1000"
                       ascent="730"
                       descent="-160"
                       bbox="-68 -169 1158 907"
                    />
            <missing-glyph horiz-adv-x="0" />
            
            <glyph glyph-name="!" unicode="&#x21;" horiz-adv-x="182" d=" M90,0 L90,105 L182,105 L182,0 M114,198 L91,643 L91,700 L181,700 L181,643 L157,198"/> 
            <glyph glyph-name="&quot;" unicode="&#x22;" horiz-adv-x="383" d=" M65,428 L95,700 L188,700 L188,695 L107,428 M260,428 L291,700 L383,700 L383,695 L302,428"/> 
            <glyph glyph-name="#" unicode="&#x23;" horiz-adv-x="654" d=" M237,246 L427,246 L463,458 L273,458 M124,0 L154,177 L45,177 L45,246 L166,246 L203,458 L84,458 L84,527 L214,527 L244,700 L314,700 L285,527 L475,527 L505,700 L575,700 L546,527 L654,527 L654,458 L534,458 L497,246 L615,246 L615,177 L486,177 L455,0 L385,0 L415,177 L225,177 L194,0"/> 
            <glyph glyph-name="$" unicode="&#x24;" horiz-adv-x="569" d=" M353,306 L353,67 Q416,70 454,102 Q492,134 492,183 L492,185 Q492,232 462.5,259.5 Q433,287 353,306 M295,398 L295,633 Q233,631 196,599.5 Q159,568 159,521 L159,519 Q159,475 188.5,446 Q218,417 295,398 M292,-98 L292,2 Q164,13 56,105 L101,165 Q193,81 295,70 L295,320 Q183,347 132.5,392 Q82,437 82,514 L82,516 Q82,593 141,644.5 Q200,696 292,700 L292,758 L356,758 L356,698 Q454,689 547,618 L504,558 Q436,616 353,630 L353,384 Q467,358 518,312 Q569,266 569,190 L569,188 Q569,108 510.5,57 Q452,6 356,0 L356,-98"/> 
            <glyph glyph-name="%" unicode="&#x25;" horiz-adv-x="781" d=" M624,48 Q664,48 689.5,83 Q715,118 715,169 L715,171 Q715,223 688,258.5 Q661,294 622,294 Q582,294 556.5,259 Q531,224 531,173 L531,171 Q531,119 558,83.5 Q585,48 624,48 M212,406 Q252,406 277.5,441 Q303,476 303,527 L303,529 Q303,580 275.5,616 Q248,652 210,652 Q170,652 144.5,617 Q119,582 119,531 L119,529 Q119,477 146,441.5 Q173,406 212,406 M622,-8 Q554,-8 509.5,44.5 Q465,97 465,169 L465,171 Q465,244 510,297 Q555,350 624,350 Q694,350 737.5,297.5 Q781,245 781,173 L781,171 Q781,97 736.5,44.5 Q692,-8 622,-8 M124,0 L638,700 L709,700 L196,0 M279,350 Q141,350 96.5,402.5 Q52,455 52,527 L52,529 Q52,602 97,655 Q142,708 212,708 Q280,708 324.5,655.5 Q369,603 369,531 L369,529 Q369,456 279,350"/> 
            <glyph glyph-name="&amp;" unicode="&#x26;" horiz-adv-x="664" d=" M271,57 Q363,57 446,148 L259,341 Q125,291 125,191 L125,189 Q125,132 166,94.5 Q207,57 271,57 M290,415 Q425,462 425,548 L425,550 Q425,592 397,619.5 Q369,647 326,647 Q279,647 249.5,618 Q220,589 220,546 L220,544 Q220,513 235,485 Q250,457 290,415 M604,-14 L494,99 Q393,-10 265,-10 Q170,-10 107.5,44.5 Q45,99 45,186 L45,188 Q45,323 214,390 Q177,433 160.5,468 Q144,503 144,544 L144,546 Q144,616 195.5,664 Q247,712 329,712 Q402,712 450.5,666 Q499,620 499,554 L499,552 Q499,428 334,370 L494,207 Q540,274 578,363 L643,333 Q592,222 542,157 L664,32"/> 
            <glyph glyph-name="'" unicode="&#x27;" horiz-adv-x="189" d=" M65,428 L95,700 L189,700 L189,695 L108,428"/> 
            <glyph glyph-name="(" unicode="&#x28;" horiz-adv-x="378" d=" M378,-90 L345,-141 Q68,14 68,287 Q68,560 345,715 L378,664 Q146,517 146,287 Q146,57 378,-90"/> 
            <glyph glyph-name=")" unicode="&#x29;" horiz-adv-x="366" d=" M89,-141 L56,-90 Q288,57 288,287 Q288,517 56,664 L89,715 Q366,560 366,287 Q366,14 89,-141"/> 
            <glyph glyph-name="*" unicode="&#x2A;" horiz-adv-x="361" d=" M189,397 L199,522 L96,449 L69,496 L185,549 L69,603 L96,649 L199,577 L189,702 L241,702 L231,577 L334,649 L361,603 L245,549 L361,496 L334,449 L231,522 L241,397"/> 
            <glyph glyph-name="+" unicode="&#x2B;" horiz-adv-x="565" d=" M283,110 L283,316 L75,316 L75,388 L283,388 L283,594 L357,594 L357,388 L565,388 L565,316 L357,316 L357,110"/> 
            <glyph glyph-name="," unicode="&#x2C;" horiz-adv-x="169" d=" M58,-122 L46,-87 Q119,-60 113,0 L77,0 L77,105 L169,105 L169,15 Q169,-45 142.5,-77 Q116,-109 58,-122"/> 
            <glyph glyph-name="-" unicode="&#x2D;" horiz-adv-x="343" d=" M65,260 L65,341 L343,341 L343,260"/> 
            <glyph glyph-name="." unicode="&#x2E;" horiz-adv-x="169" d=" M77,0 L77,105 L169,105 L169,0"/> 
            <glyph glyph-name="/" unicode="&#x2F;" horiz-adv-x="514" d=" M-21,-128 L443,798 L514,798 L50,-128"/> 
            <glyph glyph-name="0" unicode="&#x30;" horiz-adv-x="653" d=" M263,60 Q455,60 513,144 Q571,228 571,348 L571,350 Q571,469 511.5,554.5 Q452,640 357,640 Q262,640 203,556 Q144,472 144,352 L144,350 Q144,231 263,60 M489,-12 Q225,-12 143.5,92.5 Q62,197 62,348 L62,350 Q62,501 144.5,606.5 Q227,712 359,712 Q491,712 572,607.5 Q653,503 653,352 L653,350 Q653,199 489,-12"/> 
            <glyph glyph-name="1" unicode="&#x31;" horiz-adv-x="257" d=" M179,0 L179,623 L47,582 L28,646 L199,705 L257,705 L257,0"/> 
            <glyph glyph-name="2" unicode="&#x32;" horiz-adv-x="537" d=" M48,0 L48,61 L302,285 Q384,358 416,405.5 Q448,453 448,505 Q448,565 407,602 Q366,639 307,639 Q249,639 206,610 Q163,581 119,519 L61,561 Q114,638 169.5,674 Q225,710 313,710 Q407,710 468.5,654 Q530,598 530,512 L530,510 Q530,437 491,380.5 Q452,324 353,238 L166,72 L537,72 L537,0"/> 
            <glyph glyph-name="3" unicode="&#x33;" horiz-adv-x="545" d=" M311,-12 Q145,-12 50,113 L107,164 Q192,60 312,60 Q377,60 421,97.5 Q465,135 465,196 L465,198 Q465,262 411,297.5 Q357,333 269,333 L224,333 L208,380 L429,629 L87,629 L87,700 L534,700 L534,642 L314,398 Q415,389 480,340.5 Q545,292 545,201 L545,199 Q545,107 477.5,47.5 Q410,-12 311,-12"/> 
            <glyph glyph-name="4" unicode="&#x34;" horiz-adv-x="617" d=" M138,232 L432,232 L432,593 M432,0 L432,166 L63,166 L43,223 L439,705 L508,705 L508,232 L617,232 L617,166 L508,166 L508,0"/> 
            <glyph glyph-name="5" unicode="&#x35;" horiz-adv-x="553" d=" M303,-12 Q164,-12 53,99 L105,156 Q203,60 304,60 Q378,60 425.5,104 Q473,148 473,215 L473,217 Q473,283 424,323.5 Q375,364 299,364 Q223,364 152,324 L99,359 L119,700 L522,700 L522,627 L188,627 L173,403 Q240,434 311,434 Q416,434 484.5,376 Q553,318 553,220 L553,218 Q553,116 483.5,52 Q414,-12 303,-12"/> 
            <glyph glyph-name="6" unicode="&#x36;" horiz-adv-x="584" d=" M334,58 Q410,58 456.5,104 Q503,150 503,218 L503,220 Q503,284 455,327 Q407,370 332,370 Q256,370 206.5,323.5 Q157,277 157,217 L157,215 Q157,148 207,103 Q257,58 334,58 M333,-12 Q220,-12 149,59 Q104,104 82.5,166 Q61,228 61,330 L61,332 Q61,497 139.5,604.5 Q218,712 352,712 Q463,712 559,632 L513,571 Q431,640 348,640 Q254,640 198.5,554 Q143,468 143,331 Q214,438 342,438 Q443,438 513.5,378.5 Q584,319 584,223 L584,221 Q584,120 512,54 Q440,-12 333,-12"/> 
            <glyph glyph-name="7" unicode="&#x37;" horiz-adv-x="543" d=" M137,0 L453,628 L68,628 L68,700 L543,700 L543,641 L225,0"/> 
            <glyph glyph-name="8" unicode="&#x38;" horiz-adv-x="578" d=" M231,59 Q399,59 448.5,97 Q498,135 498,190 L498,192 Q498,249 445,287 Q392,325 315,325 Q238,325 185,287 Q132,249 132,192 L132,190 Q132,135 231,59 M247,390 Q383,390 429,426 Q475,462 475,518 L475,520 Q475,572 429.5,606.5 Q384,641 315,641 Q246,641 200.5,606.5 Q155,572 155,520 L155,518 Q155,462 247,390 M428,-10 Q202,-10 127,45.5 Q52,101 52,188 L52,190 Q52,250 91,293.5 Q130,337 196,362 Q76,417 76,523 L76,525 Q76,604 146.5,657 Q217,710 315,710 Q413,710 483.5,657 Q554,604 554,525 L554,523 Q554,417 434,362 Q500,337 539,294 Q578,251 578,191 L578,189 Q578,101 428,-10"/> 
            <glyph glyph-name="9" unicode="&#x39;" horiz-adv-x="586" d=" M316,323 Q394,323 442,370.5 Q490,418 490,481 L490,483 Q490,550 440,596 Q390,642 312,642 Q236,642 190,594 Q144,546 144,478 L144,476 Q144,409 192,366 Q240,323 316,323 M295,-12 Q184,-12 79,74 L125,135 Q209,60 297,60 Q391,60 449,146 Q507,232 505,367 Q433,255 307,255 Q199,255 131,316 Q63,377 63,472 L63,474 Q63,575 134,643.5 Q205,712 315,712 Q427,712 499,640 Q586,553 586,369 L586,367 Q586,200 505,94 Q424,-12 295,-12"/> 
            <glyph glyph-name=":" unicode="&#x3A;" horiz-adv-x="174" d=" M82,0 L82,105 L174,105 L174,0 M82,412 L82,517 L174,517 L174,412"/> 
            <glyph glyph-name=";" unicode="&#x3B;" horiz-adv-x="174" d=" M63,-122 L51,-87 Q124,-60 118,0 L82,0 L82,105 L174,105 L174,15 Q174,-45 147.5,-77 Q121,-109 63,-122 M82,412 L82,517 L174,517 L174,412"/> 
            <glyph glyph-name="&lt;" unicode="&#x3C;" horiz-adv-x="541" d=" M541,86 L72,319 L72,385 L541,618 L541,541 L156,353 L541,164"/> 
            <glyph glyph-name="=" unicode="&#x3D;" horiz-adv-x="550" d=" M90,198 L90,272 L550,272 L550,198 M90,432 L90,506 L550,506 L550,432"/> 
            <glyph glyph-name="&gt;" unicode="&#x3E;" horiz-adv-x="568" d=" M99,86 L99,163 L484,351 L99,540 L99,618 L568,385 L568,319"/> 
            <glyph glyph-name="?" unicode="&#x3F;" horiz-adv-x="489" d=" M199,0 L199,105 L291,105 L291,0 M220,198 L205,360 L210,365 Q307,367 358,404.5 Q409,442 409,506 L409,508 Q409,564 369,601 Q329,638 263,638 Q161,638 81,544 L30,593 Q126,709 265,709 Q365,709 427,653 Q489,597 489,511 L489,509 Q489,420 431,369.5 Q373,319 281,306 L271,198"/> 
            <glyph glyph-name="@" unicode="&#x40;" horiz-adv-x="927" d=" M450,133 Q514,133 564,188 Q614,243 614,313 Q614,368 579.5,404 Q545,440 492,440 Q427,440 377.5,387 Q328,334 328,258 Q328,199 361.5,166 Q395,133 450,133 M499,-162 Q309,-162 181,-34.5 Q53,93 53,274 Q53,454 180.5,583 Q308,712 491,712 Q672,712 799.5,593.5 Q927,475 927,316 Q927,197 871.5,134 Q816,71 740,71 Q631,71 600,155 Q530,71 435,71 Q359,71 307.5,122 Q256,173 256,253 Q256,356 327.5,429 Q399,502 487,502 Q587,502 633,419 L646,488 L713,479 L673,252 Q666,213 666,191 Q666,152 688,131 Q710,110 751,110 Q809,110 850,163 Q891,216 891,316 Q891,384 860,450 Q829,516 776.5,566 Q724,616 649,647 Q574,678 491,678 Q321,678 205,559.5 Q89,441 89,274 Q89,105 205,-11.5 Q321,-128 499,-128 Q632,-128 748,-60 L764,-87 Q641,-162 499,-162"/> 
            <glyph glyph-name="A" unicode="&#x41;" horiz-adv-x="751" d=" M234,256 L553,256 L394,613 M39,0 L358,705 L432,705 L751,0 L666,0 L584,185 L203,185 L120,0"/> 
            <glyph glyph-name="B" unicode="&#x42;" horiz-adv-x="664" d=" M177,71 L412,71 Q493,71 538.5,104 Q584,137 584,196 L584,198 Q584,256 536.5,287 Q489,318 398,318 L177,318 M177,388 L384,388 Q458,388 501.5,420 Q545,452 545,513 L545,515 Q545,568 504.5,598.5 Q464,629 390,629 L177,629 M99,0 L99,700 L397,700 Q516,700 580,638 Q625,592 625,526 L625,524 Q625,410 514,362 Q664,319 664,193 L664,191 Q664,102 595,51 Q526,0 410,0"/> 
            <glyph glyph-name="C" unicode="&#x43;" horiz-adv-x="699" d=" M419,-12 Q269,-12 168.5,92 Q68,196 68,348 L68,350 Q68,501 169,606.5 Q270,712 422,712 Q512,712 575.5,684 Q639,656 695,601 L641,543 Q591,590 539.5,614.5 Q488,639 421,639 Q305,639 227.5,556 Q150,473 150,352 L150,350 Q150,228 227.5,144.5 Q305,61 421,61 Q489,61 541,86 Q593,111 647,162 L699,111 Q640,51 574,19.5 Q508,-12 419,-12"/> 
            <glyph glyph-name="D" unicode="&#x44;" horiz-adv-x="714" d=" M178,73 L342,73 Q473,73 552.5,151 Q632,229 632,348 L632,350 Q632,469 552,548 Q472,627 342,627 L178,627 M99,0 L99,700 L342,700 Q505,700 609.5,600.5 Q714,501 714,352 L714,350 Q714,200 609.5,100 Q505,0 342,0"/> 
            <glyph glyph-name="E" unicode="&#x45;" horiz-adv-x="610" d=" M99,0 L99,700 L605,700 L605,628 L178,628 L178,389 L560,389 L560,317 L178,317 L178,72 L610,72 L610,0"/> 
            <glyph glyph-name="F" unicode="&#x46;" horiz-adv-x="602" d=" M99,0 L99,700 L602,700 L602,627 L178,627 L178,377 L557,377 L557,305 L178,305 L178,0"/> 
            <glyph glyph-name="G" unicode="&#x47;" horiz-adv-x="705" d=" M424,-12 Q263,-12 165.5,91 Q68,194 68,348 L68,350 Q68,498 167,605 Q266,712 419,712 Q503,712 563.5,689 Q624,666 680,619 L629,559 Q539,639 416,639 Q302,639 226,555 Q150,471 150,352 L150,350 Q150,223 225.5,141 Q301,59 427,59 Q543,59 629,129 L629,303 L416,303 L416,374 L705,374 L705,95 Q587,-12 424,-12"/> 
            <glyph glyph-name="H" unicode="&#x48;" horiz-adv-x="661" d=" M99,0 L99,700 L178,700 L178,389 L582,389 L582,700 L661,700 L661,0 L582,0 L582,315 L178,315 L178,0"/> 
            <glyph glyph-name="I" unicode="&#x49;" horiz-adv-x="185" d=" M106,0 L106,700 L185,700 L185,0"/> 
            <glyph glyph-name="J" unicode="&#x4A;" horiz-adv-x="465" d=" M247,-10 Q107,-10 31,114 L88,163 Q122,112 158.5,87.5 Q195,63 248,63 Q309,63 347,106.5 Q385,150 385,231 L385,700 L465,700 L465,232 Q465,112 401,48 Q342,-10 247,-10"/> 
            <glyph glyph-name="K" unicode="&#x4B;" horiz-adv-x="695" d=" M99,0 L99,700 L178,700 L178,282 L580,700 L682,700 L382,394 L695,0 L596,0 L327,339 L178,188 L178,0"/> 
            <glyph glyph-name="L" unicode="&#x4C;" horiz-adv-x="572" d=" M99,0 L99,700 L178,700 L178,73 L572,73 L572,0"/> 
            <glyph glyph-name="M" unicode="&#x4D;" horiz-adv-x="769" d=" M99,0 L99,700 L179,700 L434,318 L689,700 L769,700 L769,0 L690,0 L690,567 L435,192 L431,192 L176,566 L176,0"/> 
            <glyph glyph-name="N" unicode="&#x4E;" horiz-adv-x="691" d=" M99,0 L99,700 L173,700 L614,139 L614,700 L691,700 L691,0 L628,0 L176,574 L176,0"/> 
            <glyph glyph-name="O" unicode="&#x4F;" horiz-adv-x="783" d=" M307,61 Q545,61 622.5,144 Q700,227 700,348 L700,350 Q700,471 621.5,555 Q543,639 424,639 Q305,639 227.5,556 Q150,473 150,352 L150,350 Q150,229 307,61 M580,-12 Q268,-12 168,93.5 Q68,199 68,348 L68,350 Q68,499 169,605.5 Q270,712 426,712 Q582,712 682,606.5 Q782,501 782,352 Q783,351 782,350 Q782,201 580,-12"/> 
            <glyph glyph-name="P" unicode="&#x50;" horiz-adv-x="623" d=" M178,319 L351,319 Q438,319 490.5,361.5 Q543,404 543,473 L543,475 Q543,548 492.5,587.5 Q442,627 355,627 L178,627 M99,0 L99,700 L361,700 Q480,700 551.5,640.5 Q623,581 623,478 L623,476 Q623,367 544.5,307 Q466,247 348,247 L178,247 L178,0"/> 
            <glyph glyph-name="Q" unicode="&#x51;" horiz-adv-x="791" d=" M426,61 Q518,61 587,114 L457,225 L510,284 L639,167 Q700,244 700,348 L700,350 Q700,471 621.5,555 Q543,639 424,639 Q305,639 227.5,556 Q150,473 150,352 L150,350 Q150,229 228.5,145 Q307,61 426,61 M737,-21 L645,63 Q549,-12 424,-12 Q268,-12 168,93.5 Q68,199 68,348 L68,350 Q68,499 169,605.5 Q270,712 426,712 Q582,712 682,606.5 Q782,501 782,352 Q783,351 782,350 Q782,213 698,115 L791,38"/> 
            <glyph glyph-name="R" unicode="&#x52;" horiz-adv-x="678" d=" M178,343 L393,343 Q473,343 523,382 Q573,421 573,487 L573,489 Q573,554 526,590.5 Q479,627 394,627 L178,627 M99,0 L99,700 L400,700 Q529,700 599,630 Q653,576 653,492 L653,490 Q653,406 601,353.5 Q549,301 463,286 L678,0 L581,0 L378,272 L376,272 L178,272 L178,0"/> 
            <glyph glyph-name="S" unicode="&#x53;" horiz-adv-x="578" d=" M339,-10 Q177,-10 53,102 L102,160 Q158,109 214.5,85 Q271,61 342,61 Q412,61 455,94.5 Q498,128 498,180 L498,182 Q498,233 460,262.5 Q422,292 316,315 Q192,342 136.5,387.5 Q81,433 81,517 L81,519 Q81,601 146.5,655.5 Q212,710 311,710 Q386,710 443.5,689 Q501,668 557,624 L511,563 Q418,639 309,639 Q241,639 200.5,607 Q160,575 160,526 L160,524 Q160,472 199.5,441.5 Q239,411 350,388 Q469,361 523.5,315 Q578,269 578,190 L578,188 Q578,99 511,44.5 Q444,-10 339,-10"/> 
            <glyph glyph-name="T" unicode="&#x54;" horiz-adv-x="599" d=" M284,0 L284,627 L49,627 L49,700 L599,700 L599,627 L364,627 L364,0"/> 
            <glyph glyph-name="U" unicode="&#x55;" horiz-adv-x="671" d=" M379,-11 Q246,-11 167,68.5 Q88,148 88,293 L88,700 L167,700 L167,298 Q167,185 223,123.5 Q279,62 381,62 Q480,62 536,121 Q592,180 592,293 L592,700 L671,700 L671,299 Q671,149 592.5,69 Q514,-11 379,-11"/> 
            <glyph glyph-name="V" unicode="&#x56;" horiz-adv-x="711" d=" M340,-5 L39,700 L127,700 L376,97 L626,700 L711,700 L410,-5"/> 
            <glyph glyph-name="W" unicode="&#x57;" horiz-adv-x="1063" d=" M295,-5 L45,700 L131,700 L331,117 L523,702 L588,702 L780,117 L980,700 L1063,700 L813,-5 L746,-5 L554,563 L361,-5"/> 
            <glyph glyph-name="X" unicode="&#x58;" horiz-adv-x="679" d=" M46,0 L315,357 L56,700 L149,700 L364,414 L577,700 L669,700 L410,358 L679,0 L585,0 L361,301 L137,0"/> 
            <glyph glyph-name="Y" unicode="&#x59;" horiz-adv-x="689" d=" M318,0 L318,277 L27,700 L123,700 L359,350 L597,700 L689,700 L398,278 L398,0"/> 
            <glyph glyph-name="Z" unicode="&#x5A;" horiz-adv-x="628" d=" M67,0 L67,53 L520,629 L82,629 L82,700 L628,700 L628,647 L174,71 L628,71 L628,0"/> 
            <glyph glyph-name="[" unicode="&#x5B;" horiz-adv-x="380" d=" M94,-130 L94,700 L380,700 L380,640 L167,640 L167,-70 L380,-70 L380,-130"/> 
            <glyph glyph-name="\" unicode="&#x5C;" horiz-adv-x="529" d=" M458,-128 L-6,798 L65,798 L529,-128"/> 
            <glyph glyph-name="]" unicode="&#x5D;" horiz-adv-x="345" d=" M59,-130 L59,-70 L273,-70 L273,640 L59,640 L59,700 L345,700 L345,-130"/> 
            <glyph glyph-name="^" unicode="&#x5E;" horiz-adv-x="435" d=" M65,493 L220,702 L280,702 L435,493 L367,493 L249,647 L131,493"/> 
            <glyph glyph-name="_" unicode="&#x5F;" horiz-adv-x="602" d=" M-2,-160 L-2,-97 L602,-97 L602,-160"/> 
            <glyph glyph-name="`" unicode="&#x60;" horiz-adv-x="319" d=" M257,595 L144,703 L224,740 L319,595"/> 
            <glyph glyph-name="a" unicode="&#x61;" horiz-adv-x="502" d=" M255,51 Q328,51 377.5,90 Q427,129 427,190 L427,238 Q349,260 276,260 Q205,260 165,232 Q125,204 125,156 L125,154 Q125,107 163,79 Q201,51 255,51 M240,-11 Q161,-11 104,31.5 Q47,74 47,150 L47,152 Q47,233 107,277 Q167,321 268,321 Q346,321 426,299 L426,315 Q426,383 386,419 Q346,455 273,455 Q193,455 116,418 L93,481 Q186,525 281,525 Q391,525 448,468 Q502,414 502,316 L502,0 L426,0 L426,77 Q359,-11 240,-11"/> 
            <glyph glyph-name="b" unicode="&#x62;" horiz-adv-x="608" d=" M347,58 Q425,58 477,112 Q529,166 529,257 L529,259 Q529,349 476.5,404 Q424,459 347,459 Q273,459 216.5,402 Q160,345 160,260 L160,258 Q160,171 216,114.5 Q272,58 347,58 M361,-11 Q238,-11 163,99 L163,0 L86,0 L86,730 L163,730 L163,413 Q244,528 361,528 Q460,528 534,455 Q608,382 608,260 L608,258 Q608,137 534,63 Q460,-11 361,-11"/> 
            <glyph glyph-name="c" unicode="&#x63;" horiz-adv-x="530" d=" M319,-12 Q206,-12 130,67 Q54,146 54,256 L54,258 Q54,370 130,449 Q206,528 319,528 Q439,528 526,436 L475,382 Q401,460 318,460 Q239,460 186,402 Q133,344 133,260 L133,258 Q133,174 187.5,115.5 Q242,57 323,57 Q409,57 481,134 L530,88 Q442,-12 319,-12"/> 
            <glyph glyph-name="d" unicode="&#x64;" horiz-adv-x="578" d=" M317,58 Q392,58 448,114.5 Q504,171 504,258 L504,260 Q504,346 448,402.5 Q392,459 317,459 Q239,459 187,405 Q135,351 135,260 L135,258 Q135,168 187.5,113 Q240,58 317,58 M303,-11 Q204,-11 130,62 Q56,135 56,257 L56,259 Q56,380 130,454 Q204,528 303,528 Q426,528 501,418 L501,730 L578,730 L578,0 L501,0 L501,104 Q421,-11 303,-11"/> 
            <glyph glyph-name="e" unicode="&#x65;" horiz-adv-x="543" d=" M132,289 L465,289 Q459,363 415.5,413 Q372,463 300,463 Q234,463 187,414 Q140,365 132,289 M542,227 L132,227 Q140,148 191.5,101.5 Q243,55 314,55 Q406,55 477,128 L525,85 Q440,-12 312,-12 Q204,-12 129,64 Q54,140 54,258 Q54,372 124.5,450 Q195,528 302,528 Q413,528 478,450 Q543,372 543,254 Q543,239 542,227"/> 
            <glyph glyph-name="f" unicode="&#x66;" horiz-adv-x="356" d=" M115,0 L115,449 L44,449 L44,516 L115,516 L115,561 Q115,649 160,694 Q200,734 271,734 Q320,734 356,721 L356,654 Q310,667 281,667 Q191,667 191,557 L191,515 L355,515 L355,449 L192,449 L192,0"/> 
            <glyph glyph-name="g" unicode="&#x67;" horiz-adv-x="578" d=" M314,108 Q390,108 447,157.5 Q504,207 504,283 L504,285 Q504,362 447.5,411 Q391,460 314,460 Q238,460 186.5,412 Q135,364 135,286 L135,284 Q135,208 187.5,158 Q240,108 314,108 M315,-162 Q184,-162 80,-90 L115,-30 Q207,-96 314,-96 Q402,-96 452,-48.5 Q502,-1 502,88 L502,149 Q420,40 299,40 Q202,40 129,107.5 Q56,175 56,282 L56,284 Q56,393 128.5,460.5 Q201,528 299,528 Q421,528 501,424 L501,517 L578,517 L578,90 Q578,-27 512,-93 Q443,-162 315,-162"/> 
            <glyph glyph-name="h" unicode="&#x68;" horiz-adv-x="538" d=" M86,0 L86,730 L163,730 L163,427 Q226,528 340,528 Q432,528 485,471 Q538,414 538,321 L538,0 L461,0 L461,302 Q461,375 423.5,416.5 Q386,458 318,458 Q251,458 207,413 Q163,368 163,296 L163,0"/> 
            <glyph glyph-name="i" unicode="&#x69;" horiz-adv-x="176" d=" M93,0 L93,517 L170,517 L170,0 M88,630 L88,715 L176,715 L176,630"/> 
            <glyph glyph-name="j" unicode="&#x6A;" horiz-adv-x="176" d=" M44,-163 Q17,-163 -4,-158 L-4,-95 Q8,-98 34,-98 Q93,-98 93,-29 L93,517 L170,517 L170,-30 Q170,-163 44,-163 M88,630 L88,715 L176,715 L176,630"/> 
            <glyph glyph-name="k" unicode="&#x6B;" horiz-adv-x="545" d=" M86,0 L86,730 L163,730 L163,226 L442,517 L538,517 L321,295 L545,0 L453,0 L268,241 L163,135 L163,0"/> 
            <glyph glyph-name="l" unicode="&#x6C;" horiz-adv-x="170" d=" M93,0 L93,730 L170,730 L170,0"/> 
            <glyph glyph-name="m" unicode="&#x6D;" horiz-adv-x="870" d=" M86,0 L86,517 L163,517 L163,430 Q194,476 232,502 Q270,528 330,528 Q447,528 496,425 Q565,528 678,528 Q768,528 819,472.5 Q870,417 870,320 L870,0 L793,0 L793,302 Q793,377 757.5,417.5 Q722,458 659,458 Q599,458 557.5,415 Q516,372 516,298 L516,0 L440,0 L440,304 Q440,377 404.5,417.5 Q369,458 307,458 Q245,458 204,412 Q163,366 163,295 L163,0"/> 
            <glyph glyph-name="n" unicode="&#x6E;" horiz-adv-x="538" d=" M86,0 L86,517 L163,517 L163,427 Q226,528 340,528 Q432,528 485,471 Q538,414 538,321 L538,0 L461,0 L461,302 Q461,375 423.5,416.5 Q386,458 318,458 Q251,458 207,413 Q163,368 163,296 L163,0"/> 
            <glyph glyph-name="o" unicode="&#x6F;" horiz-adv-x="593" d=" M324,57 Q406,57 460,115 Q514,173 514,256 L514,258 Q514,342 458.5,401 Q403,460 322,460 Q240,460 186.5,401.5 Q133,343 133,260 L133,258 Q133,174 188,115.5 Q243,57 324,57 M322,-12 Q207,-12 130.5,66.5 Q54,145 54,256 L54,258 Q54,370 131,449 Q208,528 324,528 Q439,528 516,449.5 Q593,371 593,260 L593,258 Q593,146 515.5,67 Q438,-12 322,-12"/> 
            <glyph glyph-name="p" unicode="&#x70;" horiz-adv-x="608" d=" M347,58 Q425,58 477,112 Q529,166 529,257 L529,259 Q529,349 476.5,404 Q424,459 347,459 Q273,459 216.5,402 Q160,345 160,260 L160,258 Q160,171 216,114.5 Q272,58 347,58 M86,-160 L86,517 L163,517 L163,413 Q244,528 361,528 Q460,528 534,455 Q608,382 608,260 L608,258 Q608,137 534,63 Q460,-11 361,-11 Q238,-11 163,99 L163,-160"/> 
            <glyph glyph-name="q" unicode="&#x71;" horiz-adv-x="578" d=" M317,58 Q392,58 448,114.5 Q504,171 504,258 L504,260 Q504,346 448,402.5 Q392,459 317,459 Q239,459 187,405 Q135,351 135,260 L135,258 Q135,168 187.5,113 Q240,58 317,58 M501,-160 L501,104 Q421,-11 303,-11 Q204,-11 130,62 Q56,135 56,257 L56,259 Q56,380 130,454 Q204,528 303,528 Q426,528 501,418 L501,517 L578,517 L578,-160"/> 
            <glyph glyph-name="r" unicode="&#x72;" horiz-adv-x="374" d=" M86,0 L86,517 L163,517 L163,382 Q193,449 248,488.5 Q303,528 374,526 L374,443 L368,443 Q279,443 221,381 Q163,319 163,206 L163,0"/> 
            <glyph glyph-name="s" unicode="&#x73;" horiz-adv-x="441" d=" M257,-10 Q138,-10 43,66 L82,121 Q168,55 261,55 Q309,55 338.5,77 Q368,99 368,137 L368,139 Q368,174 335,193 Q302,212 239,230 Q211,238 198,242.5 Q185,247 160,257 Q135,267 122.5,276.5 Q110,286 95.5,300.5 Q81,315 74.5,334 Q68,353 68,376 L68,378 Q68,444 117.5,485 Q167,526 244,526 Q344,526 430,469 L395,411 Q318,461 242,461 Q197,461 169.5,440 Q142,419 142,386 L142,384 Q142,370 150,358 Q158,346 168,338 Q178,330 199.5,321 Q221,312 234,308 Q247,304 275,295 Q304,286 323.5,279 Q343,272 367.5,259.5 Q392,247 406.5,232.5 Q421,218 431,196 Q441,174 441,147 L441,145 Q441,73 389,31.5 Q337,-10 257,-10"/> 
            <glyph glyph-name="t" unicode="&#x74;" horiz-adv-x="354" d=" M259,-9 Q192,-9 152.5,26.5 Q113,62 113,137 L113,449 L41,449 L41,517 L113,517 L113,673 L190,673 L190,517 L354,517 L354,449 L190,449 L190,147 Q190,61 277,61 Q315,61 352,79 L352,13 Q312,-9 259,-9"/> 
            <glyph glyph-name="u" unicode="&#x75;" horiz-adv-x="529" d=" M276,-11 Q184,-11 131,46 Q78,103 78,196 L78,517 L155,517 L155,215 Q155,142 192.5,100.5 Q230,59 298,59 Q365,59 409,104 Q453,149 453,221 L453,517 L529,517 L529,0 L453,0 L453,90 Q390,-11 276,-11"/> 
            <glyph glyph-name="v" unicode="&#x76;" horiz-adv-x="552" d=" M259,-4 L35,517 L120,517 L294,88 L469,517 L552,517 L327,-4"/> 
            <glyph glyph-name="w" unicode="&#x77;" horiz-adv-x="819" d=" M223,-4 L42,517 L124,517 L260,102 L399,519 L463,519 L603,102 L739,517 L819,517 L637,-4 L570,-4 L431,404 L291,-4"/> 
            <glyph glyph-name="x" unicode="&#x78;" horiz-adv-x="535" d=" M39,0 L242,263 L47,517 L135,517 L288,317 L441,517 L527,517 L331,265 L535,0 L446,0 L286,211 L125,0"/> 
            <glyph glyph-name="y" unicode="&#x79;" horiz-adv-x="555" d=" M166,-163 Q110,-163 56,-137 L82,-76 Q119,-95 163,-95 Q199,-95 222.5,-73.5 Q246,-52 269,2 L34,517 L119,517 L307,86 L473,517 L555,517 L338,-17 Q306,-96 265.5,-129.5 Q225,-163 166,-163"/> 
            <glyph glyph-name="z" unicode="&#x7A;" horiz-adv-x="504" d=" M56,0 L56,49 L399,452 L68,452 L68,517 L504,517 L504,468 L160,65 L504,65 L504,0"/> 
            <glyph glyph-name="{" unicode="&#x7B;" horiz-adv-x="428" d=" M428,-90 L416,-141 Q289,-118 244,-71 Q199,-24 199,61 Q199,68 199.5,98 Q200,128 200,137 Q200,197 173,227 Q146,257 82,257 L56,257 L56,317 L82,317 Q147,317 173.5,346 Q200,375 200,437 Q200,445 199.5,475.5 Q199,506 199,513 Q199,598 244,645 Q289,692 416,715 L428,664 Q375,650 344.5,636.5 Q314,623 297.5,603 Q281,583 276.5,561.5 Q272,540 272,503 Q272,493 272.5,466 Q273,439 273,428 Q273,368 246.5,335.5 Q220,303 169,287 Q222,270 247.5,238 Q273,206 273,146 Q273,135 272.5,108 Q272,81 272,71 Q272,-1 300,-33.5 Q328,-66 428,-90"/> 
            <glyph glyph-name="|" unicode="&#x7C;" horiz-adv-x="184" d=" M119,-128 L119,798 L184,798 L184,-128"/> 
            <glyph glyph-name="}" unicode="&#x7D;" horiz-adv-x="426" d=" M67,-141 L54,-90 Q124,-73 158,-51.5 Q192,-30 201.5,-4 Q211,22 211,71 Q211,81 210.5,108 Q210,135 210,146 Q210,206 236.5,238.5 Q263,271 314,287 Q261,304 235.5,336 Q210,368 210,428 Q210,439 210.5,466 Q211,493 211,503 Q211,540 206.5,561.5 Q202,583 185.5,603 Q169,623 138,636.5 Q107,650 54,664 L67,715 Q194,692 239,645 Q284,598 284,513 Q284,506 283.5,475.5 Q283,445 283,437 Q283,375 309,346 Q335,317 400,317 L426,317 L426,257 L400,257 Q335,257 309,228 Q283,199 283,137 Q283,128 283.5,98 Q284,68 284,61 Q284,-24 239,-71 Q194,-118 67,-141"/> 
            <glyph glyph-name="~" unicode="&#x7E;" horiz-adv-x="400" d=" M120,237 L73,250 Q88,307 110,331.5 Q132,356 168,356 Q191,356 238.5,335.5 Q286,315 302,315 Q322,315 332,325.5 Q342,336 354,365 L400,352 Q385,295 363.5,270.5 Q342,246 306,246 Q282,246 235,266.5 Q188,287 172,287 Q152,287 142,276.5 Q132,266 120,237"/> 
            <glyph glyph-name="¡" unicode="&#xA1;" horiz-adv-x="182" d=" M91,0 L91,57 L114,502 L157,502 L181,57 L181,0 M90,595 L90,700 L182,700 L182,595"/> 
            <glyph glyph-name="¢" unicode="&#xA2;" horiz-adv-x="533" d=" M250,169 L325,556 L321,556 Q243,556 189.5,498 Q136,440 136,357 L136,355 Q136,293 167,243 Q198,193 250,169 M212,-6 L234,100 Q155,128 106.5,197.5 Q58,267 58,353 L58,355 Q58,466 135,545.5 Q212,625 323,625 L336,625 L351,706 L416,706 L398,616 Q468,597 530,532 L480,480 Q429,532 382,547 L305,155 Q312,154 326,154 Q413,154 485,231 L533,186 Q445,85 322,85 Q304,85 295,86 L277,-6"/> 
            <glyph glyph-name="£" unicode="&#xA3;" horiz-adv-x="586" d=" M67,0 L67,46 L151,67 L151,295 L67,295 L67,364 L151,364 L151,472 Q151,587 214,650 Q274,710 372,710 Q503,710 586,602 L525,554 Q492,595 457,616 Q422,637 371,637 Q311,637 273,600 Q230,556 230,472 L230,364 L509,364 L509,295 L230,295 L230,70 L585,70 L585,0"/> 
            <glyph glyph-name="¤" unicode="&#xA4;" horiz-adv-x="668" d=" M430,-12 Q325,-12 249,56.5 Q173,125 147,237 L56,237 L56,300 L137,300 Q135,311 135,348 L135,350 Q135,385 139,408 L56,408 L56,470 L150,470 Q179,578 253,645 Q327,712 425,712 Q574,712 666,575 L606,532 Q565,589 524,615 Q483,641 422,641 Q357,641 306,594 Q255,547 231,470 L488,470 L488,408 L218,408 Q214,387 214,352 L214,350 Q214,332 216,300 L488,300 L488,237 L229,237 Q253,154 306,106.5 Q359,59 433,59 Q489,59 530.5,88 Q572,117 611,174 L668,134 Q621,64 565,26 Q509,-12 430,-12"/> 
            <glyph glyph-name="¥" unicode="&#xA5;" horiz-adv-x="659" d=" M305,0 L305,116 L100,116 L100,178 L305,178 L305,266 L100,266 L100,328 L281,328 L27,700 L121,700 L344,358 L569,700 L659,700 L404,328 L586,328 L586,266 L381,266 L381,178 L586,178 L586,116 L381,116 L381,0"/> 
            <glyph glyph-name="§" unicode="&#xA7;" horiz-adv-x="570" d=" M387,263 Q435,263 465.5,283.5 Q496,304 496,332 L496,334 Q496,360 464,381 Q432,402 354,421 Q289,437 245,437 Q197,437 166.5,416.5 Q136,396 136,368 L136,366 Q136,340 168,319 Q200,298 278,279 Q342,263 387,263 M328,-10 Q192,-10 99,85 L149,133 Q229,56 330,56 Q381,56 407,74.5 Q433,93 433,122 L433,124 Q433,153 397.5,173.5 Q362,194 270,216 Q157,242 109.5,274.5 Q62,307 62,358 L62,360 Q62,405 97.5,434.5 Q133,464 194,474 Q120,512 120,575 L120,577 Q120,637 170,673.5 Q220,710 304,710 Q440,710 533,615 L483,567 Q403,644 302,644 Q251,644 225,626 Q199,608 199,578 L199,576 Q199,547 235,526 Q271,505 362,484 Q477,456 523.5,425 Q570,394 570,342 L570,340 Q570,296 534.5,266 Q499,236 438,226 Q512,188 512,125 L512,123 Q512,63 462,26.5 Q412,-10 328,-10"/> 
            <glyph glyph-name="¨" unicode="&#xA8;" horiz-adv-x="383" d=" M117,595 L117,690 L207,690 L207,595 M293,595 L293,690 L383,690 L383,595"/> 
            <glyph glyph-name="©" unicode="&#xA9;" horiz-adv-x="777" d=" M419,163 Q340,163 286.5,218.5 Q233,274 233,354 L233,356 Q233,435 287,491 Q341,547 421,547 Q502,547 565,487 L528,447 Q476,497 420,497 Q364,497 326.5,456 Q289,415 289,357 L289,355 Q289,297 327,255.5 Q365,214 421,214 Q478,214 531,264 L567,229 Q503,163 419,163 M414,19 Q554,19 649,116.5 Q744,214 744,350 L744,352 Q744,489 649.5,585 Q555,681 416,681 Q276,681 181,583.5 Q86,486 86,350 L86,348 Q86,211 180.5,115 Q275,19 414,19 M414,-12 Q263,-12 158,93.5 Q53,199 53,348 L53,350 Q53,498 158.5,605 Q264,712 416,712 Q567,712 672,606.5 Q777,501 777,352 L777,350 Q777,202 671.5,95 Q566,-12 414,-12"/> 
            <glyph glyph-name="ª" unicode="&#xAA;" horiz-adv-x="318" d=" M177,450 Q213,450 238.5,469.5 Q264,489 264,520 L264,544 Q233,555 188,555 Q153,555 133,540.5 Q113,526 113,502 L113,500 Q113,477 131.5,463.5 Q150,450 177,450 M58,289 L58,336 L318,336 L318,289 M168,408 Q125,408 93,432 Q61,456 61,498 L61,500 Q61,544 95,568.5 Q129,593 184,593 Q228,593 264,582 L264,587 Q264,658 186,658 Q149,658 100,636 L85,678 Q143,703 191,703 Q249,703 284,671 Q313,642 313,587 L313,414 L264,414 L264,452 Q227,408 168,408"/> 
            <glyph glyph-name="«" unicode="&#xAB;" horiz-adv-x="491" d=" M210,41 L48,255 L48,263 L210,476 L269,443 L134,260 L269,75 M433,41 L271,255 L271,263 L433,476 L491,443 L356,260 L491,75"/> 
            <glyph glyph-name="´" unicode="&#xB4;" horiz-adv-x="356" d=" M181,595 L276,740 L356,703 L243,595"/> 
            <glyph glyph-name="µ" unicode="&#xB5;" horiz-adv-x="825" d=" M307,61 Q545,61 622.5,144 Q700,227 700,348 L700,350 Q700,471 621.5,555 Q543,639 424,639 Q305,639 227.5,556 Q150,473 150,352 L150,350 Q150,229 307,61 M709,-101 L577,22 Q508,-12 424,-12 Q268,-12 168,93.5 Q68,199 68,348 L68,350 Q68,499 169,605.5 Q270,712 426,712 Q582,712 682,606.5 Q782,501 782,352 Q783,351 782,350 Q782,266 748.5,193 Q715,120 653,69 L825,-95 L825,-101"/> 
            <glyph glyph-name="¶" unicode="&#xB6;" horiz-adv-x="418" d=" M338,0 L338,264 L327,264 Q205,264 126.5,321.5 Q48,379 48,481 L48,483 Q48,583 121,641.5 Q194,700 312,700 L418,700 L418,0"/> 
            <glyph glyph-name="·" unicode="&#xB7;" horiz-adv-x="169" d=" M77,248 L77,353 L169,353 L169,248"/> 
            <glyph glyph-name="¸" unicode="&#xB8;" horiz-adv-x="301" d=" M225,-155 L150,-121 L240,10 L301,10"/> 
            <glyph glyph-name="º" unicode="&#xBA;" horiz-adv-x="342" d=" M155,455 Q237,455 262.5,483.5 Q288,512 288,554 L288,556 Q288,598 261,627.5 Q234,657 194,657 Q153,657 127.5,628.5 Q102,600 102,558 L102,556 Q102,513 155,455 M51,289 L51,336 L339,336 L339,289 M194,407 Q132,407 90,450 Q48,493 48,554 L48,556 Q48,618 90.5,661.5 Q133,705 196,705 Q258,705 300,662 Q342,619 342,558 L342,556 Q342,494 299.5,450.5 Q257,407 194,407"/> 
            <glyph glyph-name="»" unicode="&#xBB;" horiz-adv-x="502" d=" M117,41 L59,74 L194,258 L59,442 L117,476 L279,263 L279,255 M340,41 L281,74 L416,258 L281,442 L340,476 L502,263 L502,255"/> 
            <glyph glyph-name="¿" unicode="&#xBF;" horiz-adv-x="506" d=" M272,-9 Q171,-9 109.5,46.5 Q48,102 48,189 L48,191 Q48,280 106,330.5 Q164,381 256,394 L265,502 L316,502 L332,340 L327,335 Q230,333 179,295.5 Q128,258 128,194 L128,192 Q128,136 168,99 Q208,62 274,62 Q375,62 455,156 L506,107 Q410,-9 272,-9 M246,595 L246,700 L338,700 L338,595"/> 
            <glyph glyph-name="À" unicode="&#xC0;" horiz-adv-x="751" d=" M363,762 L250,870 L330,907 L425,762 M234,256 L553,256 L394,613 M39,0 L358,705 L432,705 L751,0 L666,0 L584,185 L203,185 L120,0"/> 
            <glyph glyph-name="Á" unicode="&#xC1;" horiz-adv-x="751" d=" M365,762 L460,907 L540,870 L427,762 M234,256 L553,256 L394,613 M39,0 L358,705 L432,705 L751,0 L666,0 L584,185 L203,185 L120,0"/> 
            <glyph glyph-name="Â" unicode="&#xC2;" horiz-adv-x="751" d=" M255,759 L361,890 L429,890 L535,759 L469,759 L394,826 L319,759 M234,256 L553,256 L394,613 M39,0 L358,705 L432,705 L751,0 L666,0 L584,185 L203,185 L120,0"/> 
            <glyph glyph-name="Ã" unicode="&#xC3;" horiz-adv-x="751" d=" M278,753 L231,766 Q246,823 268,847 Q290,871 326,871 Q350,871 397,851 Q444,831 460,831 Q480,831 490,841.5 Q500,852 512,880 L559,867 Q544,810 522,786 Q500,762 464,762 Q440,762 393,782 Q346,802 330,802 Q310,802 300,791.5 Q290,781 278,753 M234,256 L553,256 L394,613 M39,0 L358,705 L432,705 L751,0 L666,0 L584,185 L203,185 L120,0"/> 
            <glyph glyph-name="Ä" unicode="&#xC4;" horiz-adv-x="751" d=" M262,762 L262,857 L352,857 L352,762 M438,762 L438,857 L528,857 L528,762 M234,256 L553,256 L394,613 M39,0 L358,705 L432,705 L751,0 L666,0 L584,185 L203,185 L120,0"/> 
            <glyph glyph-name="Å" unicode="&#xC5;" horiz-adv-x="751" d=" M234,256 L553,256 L394,613 M370,705 Q420,705 438.5,723 Q457,741 457,766 L457,768 Q457,793 439,811 Q421,829 395,829 Q369,829 351,811 Q333,793 333,768 L333,766 Q333,741 370,705 M39,0 L346,680 Q291,709 291,766 L291,768 Q291,808 322.5,837.5 Q354,867 395,867 Q436,867 467.5,837.5 Q499,808 499,768 L499,766 Q499,709 444,680 L751,0 L666,0 L584,185 L203,185 L120,0"/> 
            <glyph glyph-name="Æ" unicode="&#xC6;" horiz-adv-x="985" d=" M249,256 L491,256 L491,630 L467,630 M17,0 L428,700 L980,700 L980,628 L571,628 L571,389 L935,389 L935,317 L571,317 L571,72 L985,72 L985,0 L491,0 L491,185 L209,185 L100,0"/> 
            <glyph glyph-name="Ç" unicode="&#xC7;" horiz-adv-x="699" d=" M369,-155 L294,-121 L371,-9 Q238,9 153,109 Q68,209 68,348 L68,350 Q68,501 169,606.5 Q270,712 422,712 Q512,712 575.5,684 Q639,656 695,601 L641,543 Q591,590 539.5,614.5 Q488,639 421,639 Q305,639 227.5,556 Q150,473 150,352 L150,350 Q150,228 227.5,144.5 Q305,61 421,61 Q489,61 541,86 Q593,111 647,162 L699,111 Q586,-6 435,-12"/> 
            <glyph glyph-name="È" unicode="&#xC8;" horiz-adv-x="610" d=" M340,762 L227,870 L307,907 L402,762 M99,0 L99,700 L605,700 L605,628 L178,628 L178,389 L560,389 L560,317 L178,317 L178,72 L610,72 L610,0"/> 
            <glyph glyph-name="É" unicode="&#xC9;" horiz-adv-x="610" d=" M297,762 L392,907 L472,870 L359,762 M99,0 L99,700 L605,700 L605,628 L178,628 L178,389 L560,389 L560,317 L178,317 L178,72 L610,72 L610,0"/> 
            <glyph glyph-name="Ê" unicode="&#xCA;" horiz-adv-x="610" d=" M208,762 L314,893 L382,893 L488,762 L422,762 L347,829 L272,762 M99,0 L99,700 L605,700 L605,628 L178,628 L178,389 L560,389 L560,317 L178,317 L178,72 L610,72 L610,0"/> 
            <glyph glyph-name="Ë" unicode="&#xCB;" horiz-adv-x="610" d=" M215,762 L215,857 L305,857 L305,762 M391,762 L391,857 L481,857 L481,762 M99,0 L99,700 L605,700 L605,628 L178,628 L178,389 L560,389 L560,317 L178,317 L178,72 L610,72 L610,0"/> 
            <glyph glyph-name="Ì" unicode="&#xCC;" horiz-adv-x="185" d=" M115,762 L2,870 L82,907 L177,762 M106,0 L106,700 L185,700 L185,0"/> 
            <glyph glyph-name="Í" unicode="&#xCD;" horiz-adv-x="289" d=" M114,762 L209,907 L289,870 L176,762 M106,0 L106,700 L185,700 L185,0"/> 
            <glyph glyph-name="Î" unicode="&#xCE;" horiz-adv-x="286" d=" M6,762 L112,893 L180,893 L286,762 L220,762 L145,829 L70,762 M106,0 L106,700 L185,700 L185,0"/> 
            <glyph glyph-name="Ï" unicode="&#xCF;" horiz-adv-x="279" d=" M13,762 L13,857 L103,857 L103,762 M189,762 L189,857 L279,857 L279,762 M106,0 L106,700 L185,700 L185,0"/> 
            <glyph glyph-name="Ð" unicode="&#xD0;" horiz-adv-x="744" d=" M208,73 L372,73 Q503,73 582.5,151 Q662,229 662,348 L662,350 Q662,469 582,548 Q502,627 372,627 L208,627 L208,388 L418,388 L418,316 L208,316 M129,0 L129,316 L54,316 L54,388 L129,388 L129,700 L372,700 Q535,700 639.5,600.5 Q744,501 744,352 L744,350 Q744,200 639.5,100 Q535,0 372,0"/> 
            <glyph glyph-name="Ñ" unicode="&#xD1;" horiz-adv-x="691" d=" M278,753 L231,766 Q246,823 268,847 Q290,871 326,871 Q350,871 397,851 Q444,831 460,831 Q480,831 490,841.5 Q500,852 512,880 L559,867 Q544,810 522,786 Q500,762 464,762 Q440,762 393,782 Q346,802 330,802 Q310,802 300,791.5 Q290,781 278,753 M99,0 L99,700 L173,700 L614,139 L614,700 L691,700 L691,0 L628,0 L176,574 L176,0"/> 
            <glyph glyph-name="Ò" unicode="&#xD2;" horiz-adv-x="783" d=" M389,762 L276,870 L356,907 L451,762 M307,61 Q545,61 622.5,144 Q700,227 700,348 L700,350 Q700,471 621.5,555 Q543,639 424,639 Q305,639 227.5,556 Q150,473 150,352 L150,350 Q150,229 307,61 M580,-12 Q268,-12 168,93.5 Q68,199 68,348 L68,350 Q68,499 169,605.5 Q270,712 426,712 Q582,712 682,606.5 Q782,501 782,352 Q783,351 782,350 Q782,201 580,-12"/> 
            <glyph glyph-name="Ó" unicode="&#xD3;" horiz-adv-x="783" d=" M399,762 L494,907 L574,870 L461,762 M307,61 Q545,61 622.5,144 Q700,227 700,348 L700,350 Q700,471 621.5,555 Q543,639 424,639 Q305,639 227.5,556 Q150,473 150,352 L150,350 Q150,229 307,61 M580,-12 Q268,-12 168,93.5 Q68,199 68,348 L68,350 Q68,499 169,605.5 Q270,712 426,712 Q582,712 682,606.5 Q782,501 782,352 Q783,351 782,350 Q782,201 580,-12"/> 
            <glyph glyph-name="Ô" unicode="&#xD4;" horiz-adv-x="783" d=" M285,762 L391,893 L459,893 L565,762 L499,762 L424,829 L349,762 M307,61 Q545,61 622.5,144 Q700,227 700,348 L700,350 Q700,471 621.5,555 Q543,639 424,639 Q305,639 227.5,556 Q150,473 150,352 L150,350 Q150,229 307,61 M580,-12 Q268,-12 168,93.5 Q68,199 68,348 L68,350 Q68,499 169,605.5 Q270,712 426,712 Q582,712 682,606.5 Q782,501 782,352 Q783,351 782,350 Q782,201 580,-12"/> 
            <glyph glyph-name="Õ" unicode="&#xD5;" horiz-adv-x="783" d=" M308,753 L261,766 Q276,823 298,847 Q320,871 356,871 Q380,871 427,851 Q474,831 490,831 Q510,831 520,841.5 Q530,852 542,880 L589,867 Q574,810 552,786 Q530,762 494,762 Q470,762 423,782 Q376,802 360,802 Q340,802 330,791.5 Q320,781 308,753 M307,61 Q545,61 622.5,144 Q700,227 700,348 L700,350 Q700,471 621.5,555 Q543,639 424,639 Q305,639 227.5,556 Q150,473 150,352 L150,350 Q150,229 307,61 M580,-12 Q268,-12 168,93.5 Q68,199 68,348 L68,350 Q68,499 169,605.5 Q270,712 426,712 Q582,712 682,606.5 Q782,501 782,352 Q783,351 782,350 Q782,201 580,-12"/> 
            <glyph glyph-name="Ö" unicode="&#xD6;" horiz-adv-x="783" d=" M292,762 L292,857 L382,857 L382,762 M468,762 L468,857 L558,857 L558,762 M307,61 Q545,61 622.5,144 Q700,227 700,348 L700,350 Q700,471 621.5,555 Q543,639 424,639 Q305,639 227.5,556 Q150,473 150,352 L150,350 Q150,229 307,61 M580,-12 Q268,-12 168,93.5 Q68,199 68,348 L68,350 Q68,499 169,605.5 Q270,712 426,712 Q582,712 682,606.5 Q782,501 782,352 Q783,351 782,350 Q782,201 580,-12"/> 
            <glyph glyph-name="Ø" unicode="&#xD8;" horiz-adv-x="790" d=" M426,60 Q545,60 622.5,143.5 Q700,227 700,348 L700,350 Q700,457 637,537 L256,121 Q326,60 426,60 M213,163 L594,579 Q524,640 424,640 Q305,640 227.5,556.5 Q150,473 150,352 L150,350 Q150,243 213,163 M424,-12 Q297,-12 205,61 L143,-5 L60,-5 L159,103 Q68,203 68,348 L68,350 Q68,499 169,605.5 Q270,712 426,712 Q552,712 645,638 L707,705 L790,705 L691,597 Q782,497 782,352 Q783,351 782,350 Q782,201 681,94.5 Q580,-12 424,-12"/> 
            <glyph glyph-name="Ù" unicode="&#xD9;" horiz-adv-x="671" d=" M354,757 L241,865 L321,902 L416,757 M379,-11 Q246,-11 167,68.5 Q88,148 88,293 L88,700 L167,700 L167,298 Q167,185 223,123.5 Q279,62 381,62 Q480,62 536,121 Q592,180 592,293 L592,700 L671,700 L671,299 Q671,149 592.5,69 Q514,-11 379,-11"/> 
            <glyph glyph-name="Ú" unicode="&#xDA;" horiz-adv-x="671" d=" M343,757 L438,902 L518,865 L405,757 M379,-11 Q246,-11 167,68.5 Q88,148 88,293 L88,700 L167,700 L167,298 Q167,185 223,123.5 Q279,62 381,62 Q480,62 536,121 Q592,180 592,293 L592,700 L671,700 L671,299 Q671,149 592.5,69 Q514,-11 379,-11"/> 
            <glyph glyph-name="Û" unicode="&#xDB;" horiz-adv-x="671" d=" M239,759 L345,890 L413,890 L519,759 L453,759 L378,826 L303,759 M379,-11 Q246,-11 167,68.5 Q88,148 88,293 L88,700 L167,700 L167,298 Q167,185 223,123.5 Q279,62 381,62 Q480,62 536,121 Q592,180 592,293 L592,700 L671,700 L671,299 Q671,149 592.5,69 Q514,-11 379,-11"/> 
            <glyph glyph-name="Ü" unicode="&#xDC;" horiz-adv-x="671" d=" M246,759 L246,854 L336,854 L336,759 M422,759 L422,854 L512,854 L512,759 M379,-11 Q246,-11 167,68.5 Q88,148 88,293 L88,700 L167,700 L167,298 Q167,185 223,123.5 Q279,62 381,62 Q480,62 536,121 Q592,180 592,293 L592,700 L671,700 L671,299 Q671,149 592.5,69 Q514,-11 379,-11"/> 
            <glyph glyph-name="Ý" unicode="&#xDD;" horiz-adv-x="689" d=" M329,757 L424,902 L504,865 L391,757 M318,0 L318,277 L27,700 L123,700 L359,350 L597,700 L689,700 L398,278 L398,0"/> 
            <glyph glyph-name="Þ" unicode="&#xDE;" horiz-adv-x="623" d=" M178,198 L351,198 Q438,198 490.5,241 Q543,284 543,353 L543,355 Q543,428 492.5,467.5 Q442,507 355,507 L178,507 M99,0 L99,700 L178,700 L178,580 L361,580 Q480,580 551.5,520 Q623,460 623,358 L623,356 Q623,247 544.5,186.5 Q466,126 348,126 L178,126 L178,0"/> 
            <glyph glyph-name="ß" unicode="&#xDF;" horiz-adv-x="562" d=" M292,-2 L292,60 Q383,62 433,96 Q483,130 483,192 L483,194 Q483,253 432.5,287.5 Q382,322 292,331 L292,388 Q440,444 440,550 L440,552 Q440,604 404,636.5 Q368,669 309,669 Q244,669 203.5,623.5 Q163,578 163,502 L163,0 L86,0 L86,501 Q86,607 147.5,672 Q209,737 313,737 Q405,737 462,685.5 Q519,634 519,557 L519,555 Q519,490 479,443.5 Q439,397 380,372 Q460,353 511,309.5 Q562,266 562,194 L562,192 Q562,100 489,48 Q416,-4 292,-2"/> 
            <glyph glyph-name="à" unicode="&#xE0;" horiz-adv-x="502" d=" M261,595 L148,703 L228,740 L323,595 M255,51 Q328,51 377.5,90 Q427,129 427,190 L427,238 Q349,260 276,260 Q205,260 165,232 Q125,204 125,156 L125,154 Q125,107 163,79 Q201,51 255,51 M240,-11 Q161,-11 104,31.5 Q47,74 47,150 L47,152 Q47,233 107,277 Q167,321 268,321 Q346,321 426,299 L426,315 Q426,383 386,419 Q346,455 273,455 Q193,455 116,418 L93,481 Q186,525 281,525 Q391,525 448,468 Q502,414 502,316 L502,0 L426,0 L426,77 Q359,-11 240,-11"/> 
            <glyph glyph-name="á" unicode="&#xE1;" horiz-adv-x="502" d=" M248,595 L343,740 L423,703 L310,595 M255,51 Q328,51 377.5,90 Q427,129 427,190 L427,238 Q349,260 276,260 Q205,260 165,232 Q125,204 125,156 L125,154 Q125,107 163,79 Q201,51 255,51 M240,-11 Q161,-11 104,31.5 Q47,74 47,150 L47,152 Q47,233 107,277 Q167,321 268,321 Q346,321 426,299 L426,315 Q426,383 386,419 Q346,455 273,455 Q193,455 116,418 L93,481 Q186,525 281,525 Q391,525 448,468 Q502,414 502,316 L502,0 L426,0 L426,77 Q359,-11 240,-11"/> 
            <glyph glyph-name="â" unicode="&#xE2;" horiz-adv-x="502" d=" M151,595 L257,726 L325,726 L431,595 L365,595 L290,662 L215,595 M255,51 Q328,51 377.5,90 Q427,129 427,190 L427,238 Q349,260 276,260 Q205,260 165,232 Q125,204 125,156 L125,154 Q125,107 163,79 Q201,51 255,51 M240,-11 Q161,-11 104,31.5 Q47,74 47,150 L47,152 Q47,233 107,277 Q167,321 268,321 Q346,321 426,299 L426,315 Q426,383 386,419 Q346,455 273,455 Q193,455 116,418 L93,481 Q186,525 281,525 Q391,525 448,468 Q502,414 502,316 L502,0 L426,0 L426,77 Q359,-11 240,-11"/> 
            <glyph glyph-name="ã" unicode="&#xE3;" horiz-adv-x="502" d=" M175,586 L128,599 Q143,656 165,680 Q187,704 223,704 Q247,704 294,684 Q341,664 357,664 Q376,664 386.5,674.5 Q397,685 409,713 L456,700 Q441,643 419,619 Q397,595 361,595 Q337,595 290,615 Q243,635 227,635 Q208,635 197.5,624.5 Q187,614 175,586 M255,51 Q328,51 377.5,90 Q427,129 427,190 L427,238 Q349,260 276,260 Q205,260 165,232 Q125,204 125,156 L125,154 Q125,107 163,79 Q201,51 255,51 M240,-11 Q161,-11 104,31.5 Q47,74 47,150 L47,152 Q47,233 107,277 Q167,321 268,321 Q346,321 426,299 L426,315 Q426,383 386,419 Q346,455 273,455 Q193,455 116,418 L93,481 Q186,525 281,525 Q391,525 448,468 Q502,414 502,316 L502,0 L426,0 L426,77 Q359,-11 240,-11"/> 
            <glyph glyph-name="ä" unicode="&#xE4;" horiz-adv-x="502" d=" M158,595 L158,690 L248,690 L248,595 M334,595 L334,690 L424,690 L424,595 M255,51 Q328,51 377.5,90 Q427,129 427,190 L427,238 Q349,260 276,260 Q205,260 165,232 Q125,204 125,156 L125,154 Q125,107 163,79 Q201,51 255,51 M240,-11 Q161,-11 104,31.5 Q47,74 47,150 L47,152 Q47,233 107,277 Q167,321 268,321 Q346,321 426,299 L426,315 Q426,383 386,419 Q346,455 273,455 Q193,455 116,418 L93,481 Q186,525 281,525 Q391,525 448,468 Q502,414 502,316 L502,0 L426,0 L426,77 Q359,-11 240,-11"/> 
            <glyph glyph-name="å" unicode="&#xE5;" horiz-adv-x="502" d=" M266,631 Q316,631 334.5,649 Q353,667 353,692 L353,694 Q353,719 335,737 Q317,755 291,755 Q265,755 247,737 Q229,719 229,694 L229,692 Q229,667 266,631 M332,593 Q250,593 218.5,622.5 Q187,652 187,692 L187,694 Q187,734 218.5,763.5 Q250,793 291,793 Q332,793 363.5,763.5 Q395,734 395,694 L395,692 Q395,652 332,593 M255,51 Q328,51 377.5,90 Q427,129 427,190 L427,238 Q349,260 276,260 Q205,260 165,232 Q125,204 125,156 L125,154 Q125,107 163,79 Q201,51 255,51 M240,-11 Q161,-11 104,31.5 Q47,74 47,150 L47,152 Q47,233 107,277 Q167,321 268,321 Q346,321 426,299 L426,315 Q426,383 386,419 Q346,455 273,455 Q193,455 116,418 L93,481 Q186,525 281,525 Q391,525 448,468 Q502,414 502,316 L502,0 L426,0 L426,77 Q359,-11 240,-11"/> 
            <glyph glyph-name="æ" unicode="&#xE6;" horiz-adv-x="904" d=" M251,51 Q314,51 354.5,74 Q395,97 437,143 Q419,188 416,240 Q345,260 272,260 Q204,260 164.5,232 Q125,204 125,156 L125,154 Q125,107 162.5,79 Q200,51 251,51 M493,289 L826,289 Q820,363 776.5,413 Q733,463 661,463 Q595,463 548,414 Q501,365 493,289 M236,-11 Q161,-11 104,31.5 Q47,74 47,150 L47,152 Q47,233 106.5,277 Q166,321 264,321 Q331,321 417,299 L417,315 Q417,384 378,419.5 Q339,455 269,455 Q193,455 116,418 L93,481 Q186,525 277,525 Q426,525 466,413 Q497,466 549.5,497 Q602,528 664,528 Q775,528 839.5,450 Q904,372 904,254 Q904,239 903,227 L493,227 Q501,148 552.5,101.5 Q604,55 675,55 Q767,55 838,128 L886,85 Q801,-12 673,-12 Q611,-12 557.5,15.5 Q504,43 468,92 Q423,47 360.5,18 Q298,-11 236,-11"/> 
            <glyph glyph-name="ç" unicode="&#xE7;" horiz-adv-x="530" d=" M268,-155 L193,-121 L271,-7 Q177,9 115.5,83.5 Q54,158 54,256 L54,258 Q54,370 130,449 Q206,528 319,528 Q439,528 526,436 L475,382 Q401,460 318,460 Q239,460 186,402 Q133,344 133,260 L133,258 Q133,174 187.5,115.5 Q242,57 323,57 Q409,57 481,134 L530,88 Q445,-6 334,-12"/> 
            <glyph glyph-name="è" unicode="&#xE8;" horiz-adv-x="543" d=" M276,595 L163,703 L243,740 L338,595 M132,289 L465,289 Q459,363 415.5,413 Q372,463 300,463 Q234,463 187,414 Q140,365 132,289 M542,227 L132,227 Q140,148 191.5,101.5 Q243,55 314,55 Q406,55 477,128 L525,85 Q440,-12 312,-12 Q204,-12 129,64 Q54,140 54,258 Q54,372 124.5,450 Q195,528 302,528 Q413,528 478,450 Q543,372 543,254 Q543,239 542,227"/> 
            <glyph glyph-name="é" unicode="&#xE9;" horiz-adv-x="543" d=" M254,595 L349,740 L429,703 L316,595 M132,289 L465,289 Q459,363 415.5,413 Q372,463 300,463 Q234,463 187,414 Q140,365 132,289 M542,227 L132,227 Q140,148 191.5,101.5 Q243,55 314,55 Q406,55 477,128 L525,85 Q440,-12 312,-12 Q204,-12 129,64 Q54,140 54,258 Q54,372 124.5,450 Q195,528 302,528 Q413,528 478,450 Q543,372 543,254 Q543,239 542,227"/> 
            <glyph glyph-name="ê" unicode="&#xEA;" horiz-adv-x="543" d=" M159,595 L265,726 L333,726 L439,595 L373,595 L298,662 L223,595 M132,289 L465,289 Q459,363 415.5,413 Q372,463 300,463 Q234,463 187,414 Q140,365 132,289 M542,227 L132,227 Q140,148 191.5,101.5 Q243,55 314,55 Q406,55 477,128 L525,85 Q440,-12 312,-12 Q204,-12 129,64 Q54,140 54,258 Q54,372 124.5,450 Q195,528 302,528 Q413,528 478,450 Q543,372 543,254 Q543,239 542,227"/> 
            <glyph glyph-name="ë" unicode="&#xEB;" horiz-adv-x="543" d=" M166,595 L166,690 L256,690 L256,595 M342,595 L342,690 L432,690 L432,595 M132,289 L465,289 Q459,363 415.5,413 Q372,463 300,463 Q234,463 187,414 Q140,365 132,289 M542,227 L132,227 Q140,148 191.5,101.5 Q243,55 314,55 Q406,55 477,128 L525,85 Q440,-12 312,-12 Q204,-12 129,64 Q54,140 54,258 Q54,372 124.5,450 Q195,528 302,528 Q413,528 478,450 Q543,372 543,254 Q543,239 542,227"/> 
            <glyph glyph-name="ì" unicode="&#xEC;" horiz-adv-x="170" d=" M102,595 L-11,703 L69,740 L164,595 M93,0 L93,517 L170,517 L170,0"/> 
            <glyph glyph-name="í" unicode="&#xED;" horiz-adv-x="275" d=" M100,595 L195,740 L275,703 L162,595 M93,0 L93,517 L170,517 L170,0"/> 
            <glyph glyph-name="î" unicode="&#xEE;" horiz-adv-x="271" d=" M-9,595 L97,726 L165,726 L271,595 L205,595 L130,662 L55,595 M93,0 L93,517 L170,517 L170,0"/> 
            <glyph glyph-name="ï" unicode="&#xEF;" horiz-adv-x="264" d=" M-2,595 L-2,690 L88,690 L88,595 M174,595 L174,690 L264,690 L264,595 M93,0 L93,517 L170,517 L170,0"/> 
            <glyph glyph-name="ð" unicode="&#xF0;" horiz-adv-x="578" d=" M317,56 Q397,56 448,111 Q499,166 499,243 L499,245 Q499,319 444,372 Q389,425 309,425 Q230,425 181,373 Q132,321 132,244 L132,242 Q132,168 185,112 Q238,56 317,56 M312,-12 Q202,-12 128,63.5 Q54,139 54,245 L54,247 Q54,352 123,419 Q192,486 291,486 Q375,486 453,431 L322,615 L194,552 L158,599 L289,660 L239,730 L331,730 L357,691 L456,739 L491,692 L389,645 L490,496 Q578,370 578,253 L578,251 Q578,142 504.5,65 Q431,-12 312,-12"/> 
            <glyph glyph-name="ñ" unicode="&#xF1;" horiz-adv-x="538" d=" M195,586 L148,599 Q163,656 185,680 Q207,704 243,704 Q267,704 314,684 Q361,664 377,664 Q396,664 406.5,674.5 Q417,685 429,713 L476,700 Q461,643 439,619 Q417,595 381,595 Q357,595 310,615 Q263,635 247,635 Q228,635 217.5,624.5 Q207,614 195,586 M86,0 L86,517 L163,517 L163,427 Q226,528 340,528 Q432,528 485,471 Q538,414 538,321 L538,0 L461,0 L461,302 Q461,375 423.5,416.5 Q386,458 318,458 Q251,458 207,413 Q163,368 163,296 L163,0"/> 
            <glyph glyph-name="ò" unicode="&#xF2;" horiz-adv-x="593" d=" M292,595 L179,703 L259,740 L354,595 M324,57 Q406,57 460,115 Q514,173 514,256 L514,258 Q514,342 458.5,401 Q403,460 322,460 Q240,460 186.5,401.5 Q133,343 133,260 L133,258 Q133,174 188,115.5 Q243,57 324,57 M322,-12 Q207,-12 130.5,66.5 Q54,145 54,256 L54,258 Q54,370 131,449 Q208,528 324,528 Q439,528 516,449.5 Q593,371 593,260 L593,258 Q593,146 515.5,67 Q438,-12 322,-12"/> 
            <glyph glyph-name="ó" unicode="&#xF3;" horiz-adv-x="593" d=" M293,595 L388,740 L468,703 L355,595 M324,57 Q406,57 460,115 Q514,173 514,256 L514,258 Q514,342 458.5,401 Q403,460 322,460 Q240,460 186.5,401.5 Q133,343 133,260 L133,258 Q133,174 188,115.5 Q243,57 324,57 M322,-12 Q207,-12 130.5,66.5 Q54,145 54,256 L54,258 Q54,370 131,449 Q208,528 324,528 Q439,528 516,449.5 Q593,371 593,260 L593,258 Q593,146 515.5,67 Q438,-12 322,-12"/> 
            <glyph glyph-name="ô" unicode="&#xF4;" horiz-adv-x="593" d=" M183,595 L289,726 L357,726 L463,595 L397,595 L322,662 L247,595 M324,57 Q406,57 460,115 Q514,173 514,256 L514,258 Q514,342 458.5,401 Q403,460 322,460 Q240,460 186.5,401.5 Q133,343 133,260 L133,258 Q133,174 188,115.5 Q243,57 324,57 M322,-12 Q207,-12 130.5,66.5 Q54,145 54,256 L54,258 Q54,370 131,449 Q208,528 324,528 Q439,528 516,449.5 Q593,371 593,260 L593,258 Q593,146 515.5,67 Q438,-12 322,-12"/> 
            <glyph glyph-name="õ" unicode="&#xF5;" horiz-adv-x="593" d=" M206,586 L159,599 Q174,656 196,680 Q218,704 254,704 Q278,704 325,684 Q372,664 388,664 Q408,664 418,674.5 Q428,685 440,713 L487,700 Q472,643 450,619 Q428,595 392,595 Q368,595 321,615 Q274,635 258,635 Q238,635 228,624.5 Q218,614 206,586 M324,57 Q406,57 460,115 Q514,173 514,256 L514,258 Q514,342 458.5,401 Q403,460 322,460 Q240,460 186.5,401.5 Q133,343 133,260 L133,258 Q133,174 188,115.5 Q243,57 324,57 M322,-12 Q207,-12 130.5,66.5 Q54,145 54,256 L54,258 Q54,370 131,449 Q208,528 324,528 Q439,528 516,449.5 Q593,371 593,260 L593,258 Q593,146 515.5,67 Q438,-12 322,-12"/> 
            <glyph glyph-name="ö" unicode="&#xF6;" horiz-adv-x="593" d=" M190,595 L190,690 L280,690 L280,595 M366,595 L366,690 L456,690 L456,595 M324,57 Q406,57 460,115 Q514,173 514,256 L514,258 Q514,342 458.5,401 Q403,460 322,460 Q240,460 186.5,401.5 Q133,343 133,260 L133,258 Q133,174 188,115.5 Q243,57 324,57 M322,-12 Q207,-12 130.5,66.5 Q54,145 54,256 L54,258 Q54,370 131,449 Q208,528 324,528 Q439,528 516,449.5 Q593,371 593,260 L593,258 Q593,146 515.5,67 Q438,-12 322,-12"/> 
            <glyph glyph-name="ø" unicode="&#xF8;" horiz-adv-x="608" d=" M324,56 Q407,56 461,114.5 Q515,173 515,256 L515,258 Q515,326 476,380 L209,97 Q256,56 324,56 M170,136 L438,419 Q388,461 322,461 Q240,461 186,402 Q132,343 132,260 L132,258 Q132,191 170,136 M322,-12 Q232,-12 161,41 L116,-5 L39,-5 L118,80 Q54,155 54,256 L54,258 Q54,370 131,449 Q208,528 324,528 Q419,528 485,474 L530,523 L608,523 L572,485 Q533,444 528,437 Q593,362 593,260 L593,258 Q593,146 515.5,67 Q438,-12 322,-12"/> 
            <glyph glyph-name="ù" unicode="&#xF9;" horiz-adv-x="529" d=" M284,591 L171,699 L251,736 L346,591 M276,-11 Q184,-11 131,46 Q78,103 78,196 L78,517 L155,517 L155,215 Q155,142 192.5,100.5 Q230,59 298,59 Q365,59 409,104 Q453,149 453,221 L453,517 L529,517 L529,0 L453,0 L453,90 Q390,-11 276,-11"/> 
            <glyph glyph-name="ú" unicode="&#xFA;" horiz-adv-x="529" d=" M266,591 L361,736 L441,699 L328,591 M276,-11 Q184,-11 131,46 Q78,103 78,196 L78,517 L155,517 L155,215 Q155,142 192.5,100.5 Q230,59 298,59 Q365,59 409,104 Q453,149 453,221 L453,517 L529,517 L529,0 L453,0 L453,90 Q390,-11 276,-11"/> 
            <glyph glyph-name="û" unicode="&#xFB;" horiz-adv-x="529" d=" M169,595 L275,726 L343,726 L449,595 L383,595 L308,662 L233,595 M276,-11 Q184,-11 131,46 Q78,103 78,196 L78,517 L155,517 L155,215 Q155,142 192.5,100.5 Q230,59 298,59 Q365,59 409,104 Q453,149 453,221 L453,517 L529,517 L529,0 L453,0 L453,90 Q390,-11 276,-11"/> 
            <glyph glyph-name="ü" unicode="&#xFC;" horiz-adv-x="529" d=" M176,595 L176,690 L266,690 L266,595 M352,595 L352,690 L442,690 L442,595 M276,-11 Q184,-11 131,46 Q78,103 78,196 L78,517 L155,517 L155,215 Q155,142 192.5,100.5 Q230,59 298,59 Q365,59 409,104 Q453,149 453,221 L453,517 L529,517 L529,0 L453,0 L453,90 Q390,-11 276,-11"/> 
            <glyph glyph-name="ý" unicode="&#xFD;" horiz-adv-x="555" d=" M267,591 L362,736 L442,699 L329,591 M166,-163 Q110,-163 56,-137 L82,-76 Q119,-95 163,-95 Q199,-95 222.5,-73.5 Q246,-52 269,2 L34,517 L119,517 L307,86 L473,517 L555,517 L338,-17 Q306,-96 265.5,-129.5 Q225,-163 166,-163"/> 
            <glyph glyph-name="þ" unicode="&#xFE;" horiz-adv-x="608" d=" M347,58 Q425,58 477,112 Q529,166 529,257 L529,259 Q529,349 476.5,404 Q424,459 347,459 Q273,459 216.5,402 Q160,345 160,260 L160,258 Q160,171 216,114.5 Q272,58 347,58 M86,-160 L86,730 L163,730 L163,413 Q244,528 361,528 Q460,528 534,455 Q608,382 608,260 L608,258 Q608,137 534,63 Q460,-11 361,-11 Q238,-11 163,99 L163,-160"/> 
            <glyph glyph-name="ÿ" unicode="&#xFF;" horiz-adv-x="555" d=" M163,595 L163,690 L253,690 L253,595 M339,595 L339,690 L429,690 L429,595 M166,-163 Q110,-163 56,-137 L82,-76 Q119,-95 163,-95 Q199,-95 222.5,-73.5 Q246,-52 269,2 L34,517 L119,517 L307,86 L473,517 L555,517 L338,-17 Q306,-96 265.5,-129.5 Q225,-163 166,-163"/> 
            <glyph glyph-name="ı" unicode="&#x131;" horiz-adv-x="170" d=" M93,0 L93,517 L170,517 L170,0"/> 
            <glyph glyph-name="Ł" unicode="&#x141;" horiz-adv-x="602" d=" M129,0 L129,301 L54,279 L54,352 L129,375 L129,700 L207,700 L207,399 L423,465 L423,391 L207,326 L207,73 L602,73 L602,0"/> 
            <glyph glyph-name="ł" unicode="&#x142;" horiz-adv-x="276" d=" M124,0 L124,321 L48,297 L48,372 L124,395 L124,730 L200,730 L200,418 L276,442 L276,367 L200,343 L200,0"/> 
            <glyph glyph-name="Œ" unicode="&#x152;" horiz-adv-x="1071" d=" M440,73 L578,73 L578,627 L440,627 Q309,627 229.5,549 Q150,471 150,352 L150,350 Q150,231 230,152 Q310,73 440,73 M1071,0 L440,0 Q277,0 172.5,99.5 Q68,199 68,348 L68,350 Q68,500 172.5,600 Q277,700 440,700 L1066,700 L1066,628 L657,628 L657,389 L1021,389 L1021,317 L657,317 L657,72 L1071,72"/> 
            <glyph glyph-name="œ" unicode="&#x153;" horiz-adv-x="1000" d=" M323,57 Q405,57 458,115 Q511,173 511,256 L511,258 Q511,342 456,401 Q401,460 321,460 Q239,460 186,401.5 Q133,343 133,260 L133,258 Q133,174 188,115.5 Q243,57 323,57 M589,289 L922,289 Q916,363 872.5,413 Q829,463 757,463 Q691,463 644,414 Q597,365 589,289 M319,-12 Q208,-12 131,67 Q54,146 54,256 L54,258 Q54,369 131.5,448.5 Q209,528 322,528 Q396,528 455.5,490.5 Q515,453 548,391 Q578,454 633.5,491 Q689,528 760,528 Q871,528 935.5,450 Q1000,372 1000,254 Q1000,239 999,227 L589,227 Q597,148 648.5,101.5 Q700,55 771,55 Q863,55 934,128 L982,85 Q898,-12 770,-12 Q698,-12 638.5,25 Q579,62 547,127 Q514,64 454,26 Q394,-12 319,-12"/> 
            <glyph glyph-name="Š" unicode="&#x160;" horiz-adv-x="578" d=" M290,762 L184,893 L250,893 L325,826 L400,893 L464,893 L358,762 M339,-10 Q177,-10 53,102 L102,160 Q158,109 214.5,85 Q271,61 342,61 Q412,61 455,94.5 Q498,128 498,180 L498,182 Q498,233 460,262.5 Q422,292 316,315 Q192,342 136.5,387.5 Q81,433 81,517 L81,519 Q81,601 146.5,655.5 Q212,710 311,710 Q386,710 443.5,689 Q501,668 557,624 L511,563 Q418,639 309,639 Q241,639 200.5,607 Q160,575 160,526 L160,524 Q160,472 199.5,441.5 Q239,411 350,388 Q469,361 523.5,315 Q578,269 578,190 L578,188 Q578,99 511,44.5 Q444,-10 339,-10"/> 
            <glyph glyph-name="š" unicode="&#x161;" horiz-adv-x="441" d=" M218,595 L112,726 L178,726 L253,659 L328,726 L392,726 L286,595 M257,-10 Q138,-10 43,66 L82,121 Q168,55 261,55 Q309,55 338.5,77 Q368,99 368,137 L368,139 Q368,174 335,193 Q302,212 239,230 Q211,238 198,242.5 Q185,247 160,257 Q135,267 122.5,276.5 Q110,286 95.5,300.5 Q81,315 74.5,334 Q68,353 68,376 L68,378 Q68,444 117.5,485 Q167,526 244,526 Q344,526 430,469 L395,411 Q318,461 242,461 Q197,461 169.5,440 Q142,419 142,386 L142,384 Q142,370 150,358 Q158,346 168,338 Q178,330 199.5,321 Q221,312 234,308 Q247,304 275,295 Q304,286 323.5,279 Q343,272 367.5,259.5 Q392,247 406.5,232.5 Q421,218 431,196 Q441,174 441,147 L441,145 Q441,73 389,31.5 Q337,-10 257,-10"/> 
            <glyph glyph-name="Ÿ" unicode="&#x178;" horiz-adv-x="689" d=" M225,759 L225,854 L315,854 L315,759 M401,759 L401,854 L491,854 L491,759 M318,0 L318,277 L27,700 L123,700 L359,350 L597,700 L689,700 L398,278 L398,0"/> 
            <glyph glyph-name="Ž" unicode="&#x17D;" horiz-adv-x="628" d=" M317,762 L211,893 L277,893 L352,826 L427,893 L491,893 L385,762 M67,0 L67,53 L520,629 L82,629 L82,700 L628,700 L628,647 L174,71 L628,71 L628,0"/> 
            <glyph glyph-name="ž" unicode="&#x17E;" horiz-adv-x="504" d=" M253,595 L147,726 L213,726 L288,659 L363,726 L427,726 L321,595 M56,0 L56,49 L399,452 L68,452 L68,517 L504,517 L504,468 L160,65 L504,65 L504,0"/> 
            <glyph glyph-name="ƒ" unicode="&#x192;" horiz-adv-x="478" d=" M93,-5 Q61,-5 41,-1 L41,65 Q58,61 85,61 Q150,61 163,137 L207,373 L109,373 L109,440 L218,440 L241,559 Q255,635 292,670 Q329,705 397,705 Q445,705 478,694 L478,628 Q444,638 409,638 Q370,638 349,617 Q328,596 319,548 L299,440 L443,440 L443,373 L287,373 L242,129 Q228,59 192.5,27 Q157,-5 93,-5"/> 
            <glyph glyph-name="ˆ" unicode="&#x2C6;" horiz-adv-x="390" d=" M110,595 L216,726 L284,726 L390,595 L324,595 L249,662 L174,595"/> 
            <glyph glyph-name="ˇ" unicode="&#x2C7;" horiz-adv-x="390" d=" M216,595 L110,726 L176,726 L251,659 L326,726 L390,726 L284,595"/> 
            <glyph glyph-name="ˉ" unicode="&#x2C9;" horiz-adv-x="408" d=" M92,600 L92,667 L408,667 L408,600"/> 
            <glyph glyph-name="˘" unicode="&#x2D8;" horiz-adv-x="398" d=" M313,593 Q187,593 147,628 Q107,663 102,726 L158,726 Q177,657 250,657 Q323,657 342,726 L398,726 Q393,663 313,593"/> 
            <glyph glyph-name="˙" unicode="&#x2D9;" horiz-adv-x="297" d=" M203,595 L203,691 L297,691 L297,595"/> 
            <glyph glyph-name="˚" unicode="&#x2DA;" horiz-adv-x="354" d=" M225,631 Q275,631 293.5,649 Q312,667 312,692 L312,694 Q312,719 294,737 Q276,755 250,755 Q224,755 206,737 Q188,719 188,694 L188,692 Q188,667 225,631 M291,593 Q209,593 177.5,622.5 Q146,652 146,692 L146,694 Q146,734 177.5,763.5 Q209,793 250,793 Q291,793 322.5,763.5 Q354,734 354,694 L354,692 Q354,652 291,593"/> 
            <glyph glyph-name="˛" unicode="&#x2DB;" horiz-adv-x="360" d=" M360,-123 L360,-164 Q275,-169 229,-139 Q183,-109 183,-56 Q183,-23 197,10 L257,10 Q251,-16 251,-41 Q251,-117 360,-123"/> 
            <glyph glyph-name="˜" unicode="&#x2DC;" horiz-adv-x="414" d=" M133,586 L86,599 Q101,656 123,680 Q145,704 181,704 Q205,704 252,684 Q299,664 315,664 Q334,664 344.5,674.5 Q355,685 367,713 L414,700 Q399,643 377,619 Q355,595 319,595 Q295,595 248,615 Q201,635 185,635 Q166,635 155.5,624.5 Q145,614 133,586"/> 
            <glyph glyph-name="˝" unicode="&#x2DD;" horiz-adv-x="418" d=" M84,595 L179,740 L254,703 L146,595 M248,595 L343,740 L418,703 L309,595"/> 
            <glyph glyph-name=";" unicode="&#x37E;" horiz-adv-x="174" d=" M63,-122 L51,-87 Q124,-60 118,0 L82,0 L82,105 L174,105 L174,15 Q174,-45 147.5,-77 Q121,-109 63,-122 M82,412 L82,517 L174,517 L174,412"/> 
            <glyph glyph-name="Ω" unicode="&#x3A9;" horiz-adv-x="723" d=" M115,0 L115,449 L44,449 L44,516 L115,516 L115,561 Q115,649 160,694 Q200,734 271,734 Q320,734 356,721 L356,654 Q310,667 281,667 Q191,667 191,557 L191,515 L355,515 L355,449 L192,449 L192,0 M483,0 L483,449 L412,449 L412,516 L483,516 L483,561 Q483,650 527,694 Q568,734 638,734 Q688,734 723,721 L723,654 Q679,667 649,667 Q559,667 559,557 L559,515 L722,515 L722,449 L559,449 L559,0"/> 
            <glyph glyph-name="μ" unicode="&#x3BC;" horiz-adv-x="825" d=" M307,61 Q545,61 622.5,144 Q700,227 700,348 L700,350 Q700,471 621.5,555 Q543,639 424,639 Q305,639 227.5,556 Q150,473 150,352 L150,350 Q150,229 307,61 M709,-101 L577,22 Q508,-12 424,-12 Q268,-12 168,93.5 Q68,199 68,348 L68,350 Q68,499 169,605.5 Q270,712 426,712 Q582,712 682,606.5 Q782,501 782,352 Q783,351 782,350 Q782,266 748.5,193 Q715,120 653,69 L825,-95 L825,-101"/> 
            <glyph glyph-name="π" unicode="&#x3C0;" horiz-adv-x="777" d=" M348,347 L432,347 Q475,347 500.5,366 Q526,385 526,420 L526,422 Q526,493 433,493 L348,493 M292,172 L292,543 L438,543 Q505,543 543.5,511.5 Q582,480 582,423 L582,421 Q582,361 538.5,329 Q495,297 431,297 L348,297 L348,172 M414,19 Q554,19 649,116.5 Q744,214 744,350 L744,352 Q744,489 649.5,585 Q555,681 416,681 Q276,681 181,583.5 Q86,486 86,350 L86,348 Q86,211 180.5,115 Q275,19 414,19 M414,-12 Q263,-12 158,93.5 Q53,199 53,348 L53,350 Q53,498 158.5,605 Q264,712 416,712 Q567,712 672,606.5 Q777,501 777,352 L777,350 Q777,202 671.5,95 Q566,-12 414,-12"/> 
            <glyph glyph-name="–" unicode="&#x2013;" horiz-adv-x="463" d=" M65,262 L65,339 L463,339 L463,262"/> 
            <glyph glyph-name="—" unicode="&#x2014;" horiz-adv-x="833" d=" M65,262 L65,339 L833,339 L833,262"/> 
            <glyph glyph-name="‘" unicode="&#x2018;" horiz-adv-x="194" d=" M72,478 L72,568 Q72,628 98,660 Q124,692 182,705 L194,670 Q156,656 140.5,635.5 Q125,615 127,583 L164,583 L164,478"/> 
            <glyph glyph-name="’" unicode="&#x2019;" horiz-adv-x="174" d=" M63,473 L51,508 Q124,535 118,595 L82,595 L82,700 L174,700 L174,610 Q174,550 147.5,518 Q121,486 63,473"/> 
            <glyph glyph-name="‚" unicode="&#x201A;" horiz-adv-x="169" d=" M58,-122 L46,-87 Q119,-60 113,0 L77,0 L77,105 L169,105 L169,15 Q169,-45 142.5,-77 Q116,-109 58,-122"/> 
            <glyph glyph-name="“" unicode="&#x201C;" horiz-adv-x="394" d=" M72,478 L72,568 Q72,628 98,660 Q124,692 182,705 L194,670 Q156,656 140.5,635.5 Q125,615 127,583 L164,583 L164,478 M272,478 L272,568 Q272,628 298,660 Q324,692 382,705 L394,670 Q356,656 340.5,635.5 Q325,615 327,583 L363,583 L363,478"/> 
            <glyph glyph-name="”" unicode="&#x201D;" horiz-adv-x="373" d=" M63,473 L51,508 Q124,535 118,595 L82,595 L82,700 L174,700 L174,610 Q174,550 147.5,518 Q121,486 63,473 M263,473 L251,508 Q324,535 318,595 L282,595 L282,700 L373,700 L373,610 Q373,550 347,518 Q321,486 263,473"/> 
            <glyph glyph-name="„" unicode="&#x201E;" horiz-adv-x="368" d=" M58,-122 L46,-87 Q119,-60 113,0 L77,0 L77,105 L169,105 L169,15 Q169,-45 142.5,-77 Q116,-109 58,-122 M258,-122 L246,-87 Q319,-60 313,0 L277,0 L277,105 L368,105 L368,15 Q368,-45 342,-77 Q316,-109 258,-122"/> 
            <glyph glyph-name="†" unicode="&#x2020;" horiz-adv-x="350" d=" M178,238 L184,520 L60,512 L60,567 L183,559 L174,700 L236,700 L227,559 L350,567 L350,512 L226,520 L232,238"/> 
            <glyph glyph-name="‡" unicode="&#x2021;" horiz-adv-x="360" d=" M184,0 L193,141 L70,133 L70,188 L194,180 L188,350 L194,520 L70,512 L70,567 L193,559 L184,700 L246,700 L237,559 L360,567 L360,512 L236,520 L242,350 L236,180 L360,188 L360,133 L237,141 L246,0"/> 
            <glyph glyph-name="•" unicode="&#x2022;" horiz-adv-x="370" d=" M293,221 Q185,221 146.5,259 Q108,297 108,351 L108,353 Q108,407 147,445 Q186,483 239,483 Q291,483 330.5,444.5 Q370,406 370,353 L370,351 Q370,297 293,221"/> 
            <glyph glyph-name="…" unicode="&#x2026;" horiz-adv-x="647" d=" M77,0 L77,103 L166,103 L166,0 M317,0 L317,103 L406,103 L406,0 M557,0 L557,103 L647,103 L647,0"/> 
            <glyph glyph-name="‰" unicode="&#x2030;" horiz-adv-x="1158" d=" M624,48 Q664,48 689.5,83 Q715,118 715,169 L715,171 Q715,223 688,258.5 Q661,294 622,294 Q582,294 556.5,259 Q531,224 531,173 L531,171 Q531,119 558,83.5 Q585,48 624,48 M1001,48 Q1041,48 1066.5,83 Q1092,118 1092,169 L1092,171 Q1092,223 1065,258.5 Q1038,294 999,294 Q959,294 933.5,259 Q908,224 908,173 L908,171 Q908,119 935,83.5 Q962,48 1001,48 M212,406 Q252,406 277.5,441 Q303,476 303,527 L303,529 Q303,580 275.5,616 Q248,652 210,652 Q170,652 144.5,617 Q119,582 119,531 L119,529 Q119,477 146,441.5 Q173,406 212,406 M622,-8 Q554,-8 509.5,44.5 Q465,97 465,169 L465,171 Q465,244 510,297 Q555,350 624,350 Q694,350 737.5,297.5 Q781,245 781,173 L781,171 Q781,97 736.5,44.5 Q692,-8 622,-8 M999,-8 Q931,-8 886.5,44.5 Q842,97 842,169 L842,171 Q842,244 887,297 Q932,350 1001,350 Q1071,350 1114.5,297.5 Q1158,245 1158,173 L1158,171 Q1158,97 1113.5,44.5 Q1069,-8 999,-8 M124,0 L638,700 L709,700 L196,0 M279,350 Q141,350 96.5,402.5 Q52,455 52,527 L52,529 Q52,602 97,655 Q142,708 212,708 Q280,708 324.5,655.5 Q369,603 369,531 L369,529 Q369,456 279,350"/> 
            <glyph glyph-name="‹" unicode="&#x2039;" horiz-adv-x="269" d=" M210,41 L48,255 L48,263 L210,476 L269,443 L134,260 L269,75"/> 
            <glyph glyph-name="›" unicode="&#x203A;" horiz-adv-x="279" d=" M117,41 L59,74 L194,258 L59,442 L117,476 L279,263 L279,255"/> 
            <glyph glyph-name="⁄" unicode="&#x2044;" horiz-adv-x="475" d=" M-68,-98 L399,758 L475,758 L8,-98"/> 
            <glyph glyph-name="™" unicode="&#x2122;" horiz-adv-x="648" d=" M125,392 L125,658 L26,658 L26,700 L268,700 L268,658 L169,658 L169,392 M336,392 L336,700 L383,700 L493,531 L602,700 L648,700 L648,392 L605,392 L605,628 L495,461 L489,461 L380,628 L380,392"/> 
            <glyph glyph-name="Ω" unicode="&#x2126;" horiz-adv-x="723" d=" M115,0 L115,449 L44,449 L44,516 L115,516 L115,561 Q115,649 160,694 Q200,734 271,734 Q320,734 356,721 L356,654 Q310,667 281,667 Q191,667 191,557 L191,515 L355,515 L355,449 L192,449 L192,0 M483,0 L483,449 L412,449 L412,516 L483,516 L483,561 Q483,650 527,694 Q568,734 638,734 Q688,734 723,721 L723,654 Q679,667 649,667 Q559,667 559,557 L559,515 L722,515 L722,449 L559,449 L559,0"/> 
            <glyph glyph-name="∕" unicode="&#x2215;" horiz-adv-x="475" d=" M-68,-98 L399,758 L475,758 L8,-98"/> 
            <glyph glyph-name="≈" unicode="&#x2248;" horiz-adv-x="910" d=" M828,0 L828,517 L905,517 L905,0 M115,0 L115,449 L44,449 L44,516 L115,516 L115,561 Q115,649 160,694 Q200,734 271,734 Q320,734 356,721 L356,654 Q310,667 281,667 Q191,667 191,557 L191,515 L355,515 L355,449 L192,449 L192,0 M483,0 L483,449 L412,449 L412,516 L483,516 L483,561 Q483,650 527,694 Q568,734 638,734 Q688,734 723,721 L723,654 Q679,667 649,667 Q559,667 559,557 L559,515 L722,515 L722,449 L559,449 L559,0 M823,630 L823,715 L910,715 L910,630"/> 
            <glyph glyph-name="ﬁ" unicode="&#xFB01;" horiz-adv-x="543" d=" M461,0 L461,517 L537,517 L537,0 M115,0 L115,449 L44,449 L44,516 L115,516 L115,561 Q115,649 160,694 Q200,734 271,734 Q320,734 356,721 L356,654 Q310,667 281,667 Q191,667 191,557 L191,515 L355,515 L355,449 L192,449 L192,0 M455,630 L455,715 L543,715 L543,630"/> 
            <glyph glyph-name="ﬂ" unicode="&#xFB02;" horiz-adv-x="537" d=" M461,0 L461,730 L537,730 L537,0 M115,0 L115,449 L44,449 L44,516 L115,516 L115,561 Q115,649 160,694 Q200,734 271,734 Q320,734 356,721 L356,654 Q310,667 281,667 Q191,667 191,557 L191,515 L355,515 L355,449 L192,449 L192,0"/> 
            <glyph glyph-name=" " unicode="&#x20;" horiz-adv-x="182" d=" M90,0 L90,105 L182,105 L182,0 M114,198 L91,643 L91,700 L181,700 L181,643 L157,198"/> 
            <glyph glyph-name="!" unicode="&#x21;" horiz-adv-x="383" d=" M65,428 L95,700 L188,700 L188,695 L107,428 M260,428 L291,700 L383,700 L383,695 L302,428"/> 
            <glyph glyph-name="&quot;" unicode="&#x22;" horiz-adv-x="654" d=" M237,246 L427,246 L463,458 L273,458 M124,0 L154,177 L45,177 L45,246 L166,246 L203,458 L84,458 L84,527 L214,527 L244,700 L314,700 L285,527 L475,527 L505,700 L575,700 L546,527 L654,527 L654,458 L534,458 L497,246 L615,246 L615,177 L486,177 L455,0 L385,0 L415,177 L225,177 L194,0"/> 
            <glyph glyph-name="#" unicode="&#x23;" horiz-adv-x="569" d=" M353,306 L353,67 Q416,70 454,102 Q492,134 492,183 L492,185 Q492,232 462.5,259.5 Q433,287 353,306 M295,398 L295,633 Q233,631 196,599.5 Q159,568 159,521 L159,519 Q159,475 188.5,446 Q218,417 295,398 M292,-98 L292,2 Q164,13 56,105 L101,165 Q193,81 295,70 L295,320 Q183,347 132.5,392 Q82,437 82,514 L82,516 Q82,593 141,644.5 Q200,696 292,700 L292,758 L356,758 L356,698 Q454,689 547,618 L504,558 Q436,616 353,630 L353,384 Q467,358 518,312 Q569,266 569,190 L569,188 Q569,108 510.5,57 Q452,6 356,0 L356,-98"/> 
            <glyph glyph-name="$" unicode="&#x24;" horiz-adv-x="781" d=" M624,48 Q664,48 689.5,83 Q715,118 715,169 L715,171 Q715,223 688,258.5 Q661,294 622,294 Q582,294 556.5,259 Q531,224 531,173 L531,171 Q531,119 558,83.5 Q585,48 624,48 M212,406 Q252,406 277.5,441 Q303,476 303,527 L303,529 Q303,580 275.5,616 Q248,652 210,652 Q170,652 144.5,617 Q119,582 119,531 L119,529 Q119,477 146,441.5 Q173,406 212,406 M622,-8 Q554,-8 509.5,44.5 Q465,97 465,169 L465,171 Q465,244 510,297 Q555,350 624,350 Q694,350 737.5,297.5 Q781,245 781,173 L781,171 Q781,97 736.5,44.5 Q692,-8 622,-8 M124,0 L638,700 L709,700 L196,0 M279,350 Q141,350 96.5,402.5 Q52,455 52,527 L52,529 Q52,602 97,655 Q142,708 212,708 Q280,708 324.5,655.5 Q369,603 369,531 L369,529 Q369,456 279,350"/> 
            <glyph glyph-name="%" unicode="&#x25;" horiz-adv-x="664" d=" M271,57 Q363,57 446,148 L259,341 Q125,291 125,191 L125,189 Q125,132 166,94.5 Q207,57 271,57 M290,415 Q425,462 425,548 L425,550 Q425,592 397,619.5 Q369,647 326,647 Q279,647 249.5,618 Q220,589 220,546 L220,544 Q220,513 235,485 Q250,457 290,415 M604,-14 L494,99 Q393,-10 265,-10 Q170,-10 107.5,44.5 Q45,99 45,186 L45,188 Q45,323 214,390 Q177,433 160.5,468 Q144,503 144,544 L144,546 Q144,616 195.5,664 Q247,712 329,712 Q402,712 450.5,666 Q499,620 499,554 L499,552 Q499,428 334,370 L494,207 Q540,274 578,363 L643,333 Q592,222 542,157 L664,32"/> 
            <glyph glyph-name="&amp;" unicode="&#x26;" horiz-adv-x="189" d=" M65,428 L95,700 L189,700 L189,695 L108,428"/> 
            <glyph glyph-name="'" unicode="&#x27;" horiz-adv-x="378" d=" M378,-90 L345,-141 Q68,14 68,287 Q68,560 345,715 L378,664 Q146,517 146,287 Q146,57 378,-90"/> 
            <glyph glyph-name="(" unicode="&#x28;" horiz-adv-x="366" d=" M89,-141 L56,-90 Q288,57 288,287 Q288,517 56,664 L89,715 Q366,560 366,287 Q366,14 89,-141"/> 
            <glyph glyph-name=")" unicode="&#x29;" horiz-adv-x="361" d=" M189,397 L199,522 L96,449 L69,496 L185,549 L69,603 L96,649 L199,577 L189,702 L241,702 L231,577 L334,649 L361,603 L245,549 L361,496 L334,449 L231,522 L241,397"/> 
            <glyph glyph-name="*" unicode="&#x2A;" horiz-adv-x="565" d=" M283,110 L283,316 L75,316 L75,388 L283,388 L283,594 L357,594 L357,388 L565,388 L565,316 L357,316 L357,110"/> 
            <glyph glyph-name="+" unicode="&#x2B;" horiz-adv-x="169" d=" M58,-122 L46,-87 Q119,-60 113,0 L77,0 L77,105 L169,105 L169,15 Q169,-45 142.5,-77 Q116,-109 58,-122"/> 
            <glyph glyph-name="," unicode="&#x2C;" horiz-adv-x="343" d=" M65,260 L65,341 L343,341 L343,260"/> 
            <glyph glyph-name="-" unicode="&#x2D;" horiz-adv-x="169" d=" M77,0 L77,105 L169,105 L169,0"/> 
            <glyph glyph-name="." unicode="&#x2E;" horiz-adv-x="514" d=" M-21,-128 L443,798 L514,798 L50,-128"/> 
            <glyph glyph-name="/" unicode="&#x2F;" horiz-adv-x="653" d=" M263,60 Q455,60 513,144 Q571,228 571,348 L571,350 Q571,469 511.5,554.5 Q452,640 357,640 Q262,640 203,556 Q144,472 144,352 L144,350 Q144,231 263,60 M489,-12 Q225,-12 143.5,92.5 Q62,197 62,348 L62,350 Q62,501 144.5,606.5 Q227,712 359,712 Q491,712 572,607.5 Q653,503 653,352 L653,350 Q653,199 489,-12"/> 
            <glyph glyph-name="0" unicode="&#x30;" horiz-adv-x="257" d=" M179,0 L179,623 L47,582 L28,646 L199,705 L257,705 L257,0"/> 
            <glyph glyph-name="1" unicode="&#x31;" horiz-adv-x="537" d=" M48,0 L48,61 L302,285 Q384,358 416,405.5 Q448,453 448,505 Q448,565 407,602 Q366,639 307,639 Q249,639 206,610 Q163,581 119,519 L61,561 Q114,638 169.5,674 Q225,710 313,710 Q407,710 468.5,654 Q530,598 530,512 L530,510 Q530,437 491,380.5 Q452,324 353,238 L166,72 L537,72 L537,0"/> 
            <glyph glyph-name="2" unicode="&#x32;" horiz-adv-x="545" d=" M311,-12 Q145,-12 50,113 L107,164 Q192,60 312,60 Q377,60 421,97.5 Q465,135 465,196 L465,198 Q465,262 411,297.5 Q357,333 269,333 L224,333 L208,380 L429,629 L87,629 L87,700 L534,700 L534,642 L314,398 Q415,389 480,340.5 Q545,292 545,201 L545,199 Q545,107 477.5,47.5 Q410,-12 311,-12"/> 
            <glyph glyph-name="3" unicode="&#x33;" horiz-adv-x="617" d=" M138,232 L432,232 L432,593 M432,0 L432,166 L63,166 L43,223 L439,705 L508,705 L508,232 L617,232 L617,166 L508,166 L508,0"/> 
            <glyph glyph-name="4" unicode="&#x34;" horiz-adv-x="553" d=" M303,-12 Q164,-12 53,99 L105,156 Q203,60 304,60 Q378,60 425.5,104 Q473,148 473,215 L473,217 Q473,283 424,323.5 Q375,364 299,364 Q223,364 152,324 L99,359 L119,700 L522,700 L522,627 L188,627 L173,403 Q240,434 311,434 Q416,434 484.5,376 Q553,318 553,220 L553,218 Q553,116 483.5,52 Q414,-12 303,-12"/> 
            <glyph glyph-name="5" unicode="&#x35;" horiz-adv-x="584" d=" M334,58 Q410,58 456.5,104 Q503,150 503,218 L503,220 Q503,284 455,327 Q407,370 332,370 Q256,370 206.5,323.5 Q157,277 157,217 L157,215 Q157,148 207,103 Q257,58 334,58 M333,-12 Q220,-12 149,59 Q104,104 82.5,166 Q61,228 61,330 L61,332 Q61,497 139.5,604.5 Q218,712 352,712 Q463,712 559,632 L513,571 Q431,640 348,640 Q254,640 198.5,554 Q143,468 143,331 Q214,438 342,438 Q443,438 513.5,378.5 Q584,319 584,223 L584,221 Q584,120 512,54 Q440,-12 333,-12"/> 
            <glyph glyph-name="6" unicode="&#x36;" horiz-adv-x="543" d=" M137,0 L453,628 L68,628 L68,700 L543,700 L543,641 L225,0"/> 
            <glyph glyph-name="7" unicode="&#x37;" horiz-adv-x="578" d=" M231,59 Q399,59 448.5,97 Q498,135 498,190 L498,192 Q498,249 445,287 Q392,325 315,325 Q238,325 185,287 Q132,249 132,192 L132,190 Q132,135 231,59 M247,390 Q383,390 429,426 Q475,462 475,518 L475,520 Q475,572 429.5,606.5 Q384,641 315,641 Q246,641 200.5,606.5 Q155,572 155,520 L155,518 Q155,462 247,390 M428,-10 Q202,-10 127,45.5 Q52,101 52,188 L52,190 Q52,250 91,293.5 Q130,337 196,362 Q76,417 76,523 L76,525 Q76,604 146.5,657 Q217,710 315,710 Q413,710 483.5,657 Q554,604 554,525 L554,523 Q554,417 434,362 Q500,337 539,294 Q578,251 578,191 L578,189 Q578,101 428,-10"/> 
            <glyph glyph-name="8" unicode="&#x38;" horiz-adv-x="586" d=" M316,323 Q394,323 442,370.5 Q490,418 490,481 L490,483 Q490,550 440,596 Q390,642 312,642 Q236,642 190,594 Q144,546 144,478 L144,476 Q144,409 192,366 Q240,323 316,323 M295,-12 Q184,-12 79,74 L125,135 Q209,60 297,60 Q391,60 449,146 Q507,232 505,367 Q433,255 307,255 Q199,255 131,316 Q63,377 63,472 L63,474 Q63,575 134,643.5 Q205,712 315,712 Q427,712 499,640 Q586,553 586,369 L586,367 Q586,200 505,94 Q424,-12 295,-12"/> 
            <glyph glyph-name="9" unicode="&#x39;" horiz-adv-x="174" d=" M82,0 L82,105 L174,105 L174,0 M82,412 L82,517 L174,517 L174,412"/> 
            <glyph glyph-name=":" unicode="&#x3A;" horiz-adv-x="174" d=" M63,-122 L51,-87 Q124,-60 118,0 L82,0 L82,105 L174,105 L174,15 Q174,-45 147.5,-77 Q121,-109 63,-122 M82,412 L82,517 L174,517 L174,412"/> 
            <glyph glyph-name=";" unicode="&#x3B;" horiz-adv-x="541" d=" M541,86 L72,319 L72,385 L541,618 L541,541 L156,353 L541,164"/> 
            <glyph glyph-name="&lt;" unicode="&#x3C;" horiz-adv-x="550" d=" M90,198 L90,272 L550,272 L550,198 M90,432 L90,506 L550,506 L550,432"/> 
            <glyph glyph-name="=" unicode="&#x3D;" horiz-adv-x="568" d=" M99,86 L99,163 L484,351 L99,540 L99,618 L568,385 L568,319"/> 
            <glyph glyph-name="&gt;" unicode="&#x3E;" horiz-adv-x="489" d=" M199,0 L199,105 L291,105 L291,0 M220,198 L205,360 L210,365 Q307,367 358,404.5 Q409,442 409,506 L409,508 Q409,564 369,601 Q329,638 263,638 Q161,638 81,544 L30,593 Q126,709 265,709 Q365,709 427,653 Q489,597 489,511 L489,509 Q489,420 431,369.5 Q373,319 281,306 L271,198"/> 
            <glyph glyph-name="?" unicode="&#x3F;" horiz-adv-x="927" d=" M450,133 Q514,133 564,188 Q614,243 614,313 Q614,368 579.5,404 Q545,440 492,440 Q427,440 377.5,387 Q328,334 328,258 Q328,199 361.5,166 Q395,133 450,133 M499,-162 Q309,-162 181,-34.5 Q53,93 53,274 Q53,454 180.5,583 Q308,712 491,712 Q672,712 799.5,593.5 Q927,475 927,316 Q927,197 871.5,134 Q816,71 740,71 Q631,71 600,155 Q530,71 435,71 Q359,71 307.5,122 Q256,173 256,253 Q256,356 327.5,429 Q399,502 487,502 Q587,502 633,419 L646,488 L713,479 L673,252 Q666,213 666,191 Q666,152 688,131 Q710,110 751,110 Q809,110 850,163 Q891,216 891,316 Q891,384 860,450 Q829,516 776.5,566 Q724,616 649,647 Q574,678 491,678 Q321,678 205,559.5 Q89,441 89,274 Q89,105 205,-11.5 Q321,-128 499,-128 Q632,-128 748,-60 L764,-87 Q641,-162 499,-162"/> 
            <glyph glyph-name="@" unicode="&#x40;" horiz-adv-x="751" d=" M234,256 L553,256 L394,613 M39,0 L358,705 L432,705 L751,0 L666,0 L584,185 L203,185 L120,0"/> 
            <glyph glyph-name="A" unicode="&#x41;" horiz-adv-x="664" d=" M177,71 L412,71 Q493,71 538.5,104 Q584,137 584,196 L584,198 Q584,256 536.5,287 Q489,318 398,318 L177,318 M177,388 L384,388 Q458,388 501.5,420 Q545,452 545,513 L545,515 Q545,568 504.5,598.5 Q464,629 390,629 L177,629 M99,0 L99,700 L397,700 Q516,700 580,638 Q625,592 625,526 L625,524 Q625,410 514,362 Q664,319 664,193 L664,191 Q664,102 595,51 Q526,0 410,0"/> 
            <glyph glyph-name="B" unicode="&#x42;" horiz-adv-x="699" d=" M419,-12 Q269,-12 168.5,92 Q68,196 68,348 L68,350 Q68,501 169,606.5 Q270,712 422,712 Q512,712 575.5,684 Q639,656 695,601 L641,543 Q591,590 539.5,614.5 Q488,639 421,639 Q305,639 227.5,556 Q150,473 150,352 L150,350 Q150,228 227.5,144.5 Q305,61 421,61 Q489,61 541,86 Q593,111 647,162 L699,111 Q640,51 574,19.5 Q508,-12 419,-12"/> 
            <glyph glyph-name="C" unicode="&#x43;" horiz-adv-x="714" d=" M178,73 L342,73 Q473,73 552.5,151 Q632,229 632,348 L632,350 Q632,469 552,548 Q472,627 342,627 L178,627 M99,0 L99,700 L342,700 Q505,700 609.5,600.5 Q714,501 714,352 L714,350 Q714,200 609.5,100 Q505,0 342,0"/> 
            <glyph glyph-name="D" unicode="&#x44;" horiz-adv-x="610" d=" M99,0 L99,700 L605,700 L605,628 L178,628 L178,389 L560,389 L560,317 L178,317 L178,72 L610,72 L610,0"/> 
            <glyph glyph-name="E" unicode="&#x45;" horiz-adv-x="602" d=" M99,0 L99,700 L602,700 L602,627 L178,627 L178,377 L557,377 L557,305 L178,305 L178,0"/> 
            <glyph glyph-name="F" unicode="&#x46;" horiz-adv-x="705" d=" M424,-12 Q263,-12 165.5,91 Q68,194 68,348 L68,350 Q68,498 167,605 Q266,712 419,712 Q503,712 563.5,689 Q624,666 680,619 L629,559 Q539,639 416,639 Q302,639 226,555 Q150,471 150,352 L150,350 Q150,223 225.5,141 Q301,59 427,59 Q543,59 629,129 L629,303 L416,303 L416,374 L705,374 L705,95 Q587,-12 424,-12"/> 
            <glyph glyph-name="G" unicode="&#x47;" horiz-adv-x="661" d=" M99,0 L99,700 L178,700 L178,389 L582,389 L582,700 L661,700 L661,0 L582,0 L582,315 L178,315 L178,0"/> 
            <glyph glyph-name="H" unicode="&#x48;" horiz-adv-x="185" d=" M106,0 L106,700 L185,700 L185,0"/> 
            <glyph glyph-name="I" unicode="&#x49;" horiz-adv-x="465" d=" M247,-10 Q107,-10 31,114 L88,163 Q122,112 158.5,87.5 Q195,63 248,63 Q309,63 347,106.5 Q385,150 385,231 L385,700 L465,700 L465,232 Q465,112 401,48 Q342,-10 247,-10"/> 
            <glyph glyph-name="J" unicode="&#x4A;" horiz-adv-x="695" d=" M99,0 L99,700 L178,700 L178,282 L580,700 L682,700 L382,394 L695,0 L596,0 L327,339 L178,188 L178,0"/> 
            <glyph glyph-name="K" unicode="&#x4B;" horiz-adv-x="572" d=" M99,0 L99,700 L178,700 L178,73 L572,73 L572,0"/> 
            <glyph glyph-name="L" unicode="&#x4C;" horiz-adv-x="769" d=" M99,0 L99,700 L179,700 L434,318 L689,700 L769,700 L769,0 L690,0 L690,567 L435,192 L431,192 L176,566 L176,0"/> 
            <glyph glyph-name="M" unicode="&#x4D;" horiz-adv-x="691" d=" M99,0 L99,700 L173,700 L614,139 L614,700 L691,700 L691,0 L628,0 L176,574 L176,0"/> 
            <glyph glyph-name="N" unicode="&#x4E;" horiz-adv-x="783" d=" M307,61 Q545,61 622.5,144 Q700,227 700,348 L700,350 Q700,471 621.5,555 Q543,639 424,639 Q305,639 227.5,556 Q150,473 150,352 L150,350 Q150,229 307,61 M580,-12 Q268,-12 168,93.5 Q68,199 68,348 L68,350 Q68,499 169,605.5 Q270,712 426,712 Q582,712 682,606.5 Q782,501 782,352 Q783,351 782,350 Q782,201 580,-12"/> 
            <glyph glyph-name="O" unicode="&#x4F;" horiz-adv-x="623" d=" M178,319 L351,319 Q438,319 490.5,361.5 Q543,404 543,473 L543,475 Q543,548 492.5,587.5 Q442,627 355,627 L178,627 M99,0 L99,700 L361,700 Q480,700 551.5,640.5 Q623,581 623,478 L623,476 Q623,367 544.5,307 Q466,247 348,247 L178,247 L178,0"/> 
            <glyph glyph-name="P" unicode="&#x50;" horiz-adv-x="791" d=" M426,61 Q518,61 587,114 L457,225 L510,284 L639,167 Q700,244 700,348 L700,350 Q700,471 621.5,555 Q543,639 424,639 Q305,639 227.5,556 Q150,473 150,352 L150,350 Q150,229 228.5,145 Q307,61 426,61 M737,-21 L645,63 Q549,-12 424,-12 Q268,-12 168,93.5 Q68,199 68,348 L68,350 Q68,499 169,605.5 Q270,712 426,712 Q582,712 682,606.5 Q782,501 782,352 Q783,351 782,350 Q782,213 698,115 L791,38"/> 
            <glyph glyph-name="Q" unicode="&#x51;" horiz-adv-x="678" d=" M178,343 L393,343 Q473,343 523,382 Q573,421 573,487 L573,489 Q573,554 526,590.5 Q479,627 394,627 L178,627 M99,0 L99,700 L400,700 Q529,700 599,630 Q653,576 653,492 L653,490 Q653,406 601,353.5 Q549,301 463,286 L678,0 L581,0 L378,272 L376,272 L178,272 L178,0"/> 
            <glyph glyph-name="R" unicode="&#x52;" horiz-adv-x="578" d=" M339,-10 Q177,-10 53,102 L102,160 Q158,109 214.5,85 Q271,61 342,61 Q412,61 455,94.5 Q498,128 498,180 L498,182 Q498,233 460,262.5 Q422,292 316,315 Q192,342 136.5,387.5 Q81,433 81,517 L81,519 Q81,601 146.5,655.5 Q212,710 311,710 Q386,710 443.5,689 Q501,668 557,624 L511,563 Q418,639 309,639 Q241,639 200.5,607 Q160,575 160,526 L160,524 Q160,472 199.5,441.5 Q239,411 350,388 Q469,361 523.5,315 Q578,269 578,190 L578,188 Q578,99 511,44.5 Q444,-10 339,-10"/> 
            <glyph glyph-name="S" unicode="&#x53;" horiz-adv-x="599" d=" M284,0 L284,627 L49,627 L49,700 L599,700 L599,627 L364,627 L364,0"/> 
            <glyph glyph-name="T" unicode="&#x54;" horiz-adv-x="671" d=" M379,-11 Q246,-11 167,68.5 Q88,148 88,293 L88,700 L167,700 L167,298 Q167,185 223,123.5 Q279,62 381,62 Q480,62 536,121 Q592,180 592,293 L592,700 L671,700 L671,299 Q671,149 592.5,69 Q514,-11 379,-11"/> 
            <glyph glyph-name="U" unicode="&#x55;" horiz-adv-x="711" d=" M340,-5 L39,700 L127,700 L376,97 L626,700 L711,700 L410,-5"/> 
            <glyph glyph-name="V" unicode="&#x56;" horiz-adv-x="1063" d=" M295,-5 L45,700 L131,700 L331,117 L523,702 L588,702 L780,117 L980,700 L1063,700 L813,-5 L746,-5 L554,563 L361,-5"/> 
            <glyph glyph-name="W" unicode="&#x57;" horiz-adv-x="679" d=" M46,0 L315,357 L56,700 L149,700 L364,414 L577,700 L669,700 L410,358 L679,0 L585,0 L361,301 L137,0"/> 
            <glyph glyph-name="X" unicode="&#x58;" horiz-adv-x="689" d=" M318,0 L318,277 L27,700 L123,700 L359,350 L597,700 L689,700 L398,278 L398,0"/> 
            <glyph glyph-name="Y" unicode="&#x59;" horiz-adv-x="628" d=" M67,0 L67,53 L520,629 L82,629 L82,700 L628,700 L628,647 L174,71 L628,71 L628,0"/> 
            <glyph glyph-name="Z" unicode="&#x5A;" horiz-adv-x="380" d=" M94,-130 L94,700 L380,700 L380,640 L167,640 L167,-70 L380,-70 L380,-130"/> 
            <glyph glyph-name="[" unicode="&#x5B;" horiz-adv-x="529" d=" M458,-128 L-6,798 L65,798 L529,-128"/> 
            <glyph glyph-name="\" unicode="&#x5C;" horiz-adv-x="345" d=" M59,-130 L59,-70 L273,-70 L273,640 L59,640 L59,700 L345,700 L345,-130"/> 
            <glyph glyph-name="]" unicode="&#x5D;" horiz-adv-x="435" d=" M65,493 L220,702 L280,702 L435,493 L367,493 L249,647 L131,493"/> 
            <glyph glyph-name="^" unicode="&#x5E;" horiz-adv-x="602" d=" M-2,-160 L-2,-97 L602,-97 L602,-160"/> 
            <glyph glyph-name="_" unicode="&#x5F;" horiz-adv-x="319" d=" M257,595 L144,703 L224,740 L319,595"/> 
            <glyph glyph-name="`" unicode="&#x60;" horiz-adv-x="502" d=" M255,51 Q328,51 377.5,90 Q427,129 427,190 L427,238 Q349,260 276,260 Q205,260 165,232 Q125,204 125,156 L125,154 Q125,107 163,79 Q201,51 255,51 M240,-11 Q161,-11 104,31.5 Q47,74 47,150 L47,152 Q47,233 107,277 Q167,321 268,321 Q346,321 426,299 L426,315 Q426,383 386,419 Q346,455 273,455 Q193,455 116,418 L93,481 Q186,525 281,525 Q391,525 448,468 Q502,414 502,316 L502,0 L426,0 L426,77 Q359,-11 240,-11"/> 
            <glyph glyph-name="a" unicode="&#x61;" horiz-adv-x="608" d=" M347,58 Q425,58 477,112 Q529,166 529,257 L529,259 Q529,349 476.5,404 Q424,459 347,459 Q273,459 216.5,402 Q160,345 160,260 L160,258 Q160,171 216,114.5 Q272,58 347,58 M361,-11 Q238,-11 163,99 L163,0 L86,0 L86,730 L163,730 L163,413 Q244,528 361,528 Q460,528 534,455 Q608,382 608,260 L608,258 Q608,137 534,63 Q460,-11 361,-11"/> 
            <glyph glyph-name="b" unicode="&#x62;" horiz-adv-x="530" d=" M319,-12 Q206,-12 130,67 Q54,146 54,256 L54,258 Q54,370 130,449 Q206,528 319,528 Q439,528 526,436 L475,382 Q401,460 318,460 Q239,460 186,402 Q133,344 133,260 L133,258 Q133,174 187.5,115.5 Q242,57 323,57 Q409,57 481,134 L530,88 Q442,-12 319,-12"/> 
            <glyph glyph-name="c" unicode="&#x63;" horiz-adv-x="578" d=" M317,58 Q392,58 448,114.5 Q504,171 504,258 L504,260 Q504,346 448,402.5 Q392,459 317,459 Q239,459 187,405 Q135,351 135,260 L135,258 Q135,168 187.5,113 Q240,58 317,58 M303,-11 Q204,-11 130,62 Q56,135 56,257 L56,259 Q56,380 130,454 Q204,528 303,528 Q426,528 501,418 L501,730 L578,730 L578,0 L501,0 L501,104 Q421,-11 303,-11"/> 
            <glyph glyph-name="d" unicode="&#x64;" horiz-adv-x="543" d=" M132,289 L465,289 Q459,363 415.5,413 Q372,463 300,463 Q234,463 187,414 Q140,365 132,289 M542,227 L132,227 Q140,148 191.5,101.5 Q243,55 314,55 Q406,55 477,128 L525,85 Q440,-12 312,-12 Q204,-12 129,64 Q54,140 54,258 Q54,372 124.5,450 Q195,528 302,528 Q413,528 478,450 Q543,372 543,254 Q543,239 542,227"/> 
            <glyph glyph-name="e" unicode="&#x65;" horiz-adv-x="356" d=" M115,0 L115,449 L44,449 L44,516 L115,516 L115,561 Q115,649 160,694 Q200,734 271,734 Q320,734 356,721 L356,654 Q310,667 281,667 Q191,667 191,557 L191,515 L355,515 L355,449 L192,449 L192,0"/> 
            <glyph glyph-name="f" unicode="&#x66;" horiz-adv-x="578" d=" M314,108 Q390,108 447,157.5 Q504,207 504,283 L504,285 Q504,362 447.5,411 Q391,460 314,460 Q238,460 186.5,412 Q135,364 135,286 L135,284 Q135,208 187.5,158 Q240,108 314,108 M315,-162 Q184,-162 80,-90 L115,-30 Q207,-96 314,-96 Q402,-96 452,-48.5 Q502,-1 502,88 L502,149 Q420,40 299,40 Q202,40 129,107.5 Q56,175 56,282 L56,284 Q56,393 128.5,460.5 Q201,528 299,528 Q421,528 501,424 L501,517 L578,517 L578,90 Q578,-27 512,-93 Q443,-162 315,-162"/> 
            <glyph glyph-name="g" unicode="&#x67;" horiz-adv-x="538" d=" M86,0 L86,730 L163,730 L163,427 Q226,528 340,528 Q432,528 485,471 Q538,414 538,321 L538,0 L461,0 L461,302 Q461,375 423.5,416.5 Q386,458 318,458 Q251,458 207,413 Q163,368 163,296 L163,0"/> 
            <glyph glyph-name="h" unicode="&#x68;" horiz-adv-x="176" d=" M93,0 L93,517 L170,517 L170,0 M88,630 L88,715 L176,715 L176,630"/> 
            <glyph glyph-name="i" unicode="&#x69;" horiz-adv-x="176" d=" M44,-163 Q17,-163 -4,-158 L-4,-95 Q8,-98 34,-98 Q93,-98 93,-29 L93,517 L170,517 L170,-30 Q170,-163 44,-163 M88,630 L88,715 L176,715 L176,630"/> 
            <glyph glyph-name="j" unicode="&#x6A;" horiz-adv-x="545" d=" M86,0 L86,730 L163,730 L163,226 L442,517 L538,517 L321,295 L545,0 L453,0 L268,241 L163,135 L163,0"/> 
            <glyph glyph-name="k" unicode="&#x6B;" horiz-adv-x="170" d=" M93,0 L93,730 L170,730 L170,0"/> 
            <glyph glyph-name="l" unicode="&#x6C;" horiz-adv-x="870" d=" M86,0 L86,517 L163,517 L163,430 Q194,476 232,502 Q270,528 330,528 Q447,528 496,425 Q565,528 678,528 Q768,528 819,472.5 Q870,417 870,320 L870,0 L793,0 L793,302 Q793,377 757.5,417.5 Q722,458 659,458 Q599,458 557.5,415 Q516,372 516,298 L516,0 L440,0 L440,304 Q440,377 404.5,417.5 Q369,458 307,458 Q245,458 204,412 Q163,366 163,295 L163,0"/> 
            <glyph glyph-name="m" unicode="&#x6D;" horiz-adv-x="538" d=" M86,0 L86,517 L163,517 L163,427 Q226,528 340,528 Q432,528 485,471 Q538,414 538,321 L538,0 L461,0 L461,302 Q461,375 423.5,416.5 Q386,458 318,458 Q251,458 207,413 Q163,368 163,296 L163,0"/> 
            <glyph glyph-name="n" unicode="&#x6E;" horiz-adv-x="593" d=" M324,57 Q406,57 460,115 Q514,173 514,256 L514,258 Q514,342 458.5,401 Q403,460 322,460 Q240,460 186.5,401.5 Q133,343 133,260 L133,258 Q133,174 188,115.5 Q243,57 324,57 M322,-12 Q207,-12 130.5,66.5 Q54,145 54,256 L54,258 Q54,370 131,449 Q208,528 324,528 Q439,528 516,449.5 Q593,371 593,260 L593,258 Q593,146 515.5,67 Q438,-12 322,-12"/> 
            <glyph glyph-name="o" unicode="&#x6F;" horiz-adv-x="608" d=" M347,58 Q425,58 477,112 Q529,166 529,257 L529,259 Q529,349 476.5,404 Q424,459 347,459 Q273,459 216.5,402 Q160,345 160,260 L160,258 Q160,171 216,114.5 Q272,58 347,58 M86,-160 L86,517 L163,517 L163,413 Q244,528 361,528 Q460,528 534,455 Q608,382 608,260 L608,258 Q608,137 534,63 Q460,-11 361,-11 Q238,-11 163,99 L163,-160"/> 
            <glyph glyph-name="p" unicode="&#x70;" horiz-adv-x="578" d=" M317,58 Q392,58 448,114.5 Q504,171 504,258 L504,260 Q504,346 448,402.5 Q392,459 317,459 Q239,459 187,405 Q135,351 135,260 L135,258 Q135,168 187.5,113 Q240,58 317,58 M501,-160 L501,104 Q421,-11 303,-11 Q204,-11 130,62 Q56,135 56,257 L56,259 Q56,380 130,454 Q204,528 303,528 Q426,528 501,418 L501,517 L578,517 L578,-160"/> 
            <glyph glyph-name="q" unicode="&#x71;" horiz-adv-x="374" d=" M86,0 L86,517 L163,517 L163,382 Q193,449 248,488.5 Q303,528 374,526 L374,443 L368,443 Q279,443 221,381 Q163,319 163,206 L163,0"/> 
            <glyph glyph-name="r" unicode="&#x72;" horiz-adv-x="441" d=" M257,-10 Q138,-10 43,66 L82,121 Q168,55 261,55 Q309,55 338.5,77 Q368,99 368,137 L368,139 Q368,174 335,193 Q302,212 239,230 Q211,238 198,242.5 Q185,247 160,257 Q135,267 122.5,276.5 Q110,286 95.5,300.5 Q81,315 74.5,334 Q68,353 68,376 L68,378 Q68,444 117.5,485 Q167,526 244,526 Q344,526 430,469 L395,411 Q318,461 242,461 Q197,461 169.5,440 Q142,419 142,386 L142,384 Q142,370 150,358 Q158,346 168,338 Q178,330 199.5,321 Q221,312 234,308 Q247,304 275,295 Q304,286 323.5,279 Q343,272 367.5,259.5 Q392,247 406.5,232.5 Q421,218 431,196 Q441,174 441,147 L441,145 Q441,73 389,31.5 Q337,-10 257,-10"/> 
            <glyph glyph-name="s" unicode="&#x73;" horiz-adv-x="354" d=" M259,-9 Q192,-9 152.5,26.5 Q113,62 113,137 L113,449 L41,449 L41,517 L113,517 L113,673 L190,673 L190,517 L354,517 L354,449 L190,449 L190,147 Q190,61 277,61 Q315,61 352,79 L352,13 Q312,-9 259,-9"/> 
            <glyph glyph-name="t" unicode="&#x74;" horiz-adv-x="529" d=" M276,-11 Q184,-11 131,46 Q78,103 78,196 L78,517 L155,517 L155,215 Q155,142 192.5,100.5 Q230,59 298,59 Q365,59 409,104 Q453,149 453,221 L453,517 L529,517 L529,0 L453,0 L453,90 Q390,-11 276,-11"/> 
            <glyph glyph-name="u" unicode="&#x75;" horiz-adv-x="552" d=" M259,-4 L35,517 L120,517 L294,88 L469,517 L552,517 L327,-4"/> 
            <glyph glyph-name="v" unicode="&#x76;" horiz-adv-x="819" d=" M223,-4 L42,517 L124,517 L260,102 L399,519 L463,519 L603,102 L739,517 L819,517 L637,-4 L570,-4 L431,404 L291,-4"/> 
            <glyph glyph-name="w" unicode="&#x77;" horiz-adv-x="535" d=" M39,0 L242,263 L47,517 L135,517 L288,317 L441,517 L527,517 L331,265 L535,0 L446,0 L286,211 L125,0"/> 
            <glyph glyph-name="x" unicode="&#x78;" horiz-adv-x="555" d=" M166,-163 Q110,-163 56,-137 L82,-76 Q119,-95 163,-95 Q199,-95 222.5,-73.5 Q246,-52 269,2 L34,517 L119,517 L307,86 L473,517 L555,517 L338,-17 Q306,-96 265.5,-129.5 Q225,-163 166,-163"/> 
            <glyph glyph-name="y" unicode="&#x79;" horiz-adv-x="504" d=" M56,0 L56,49 L399,452 L68,452 L68,517 L504,517 L504,468 L160,65 L504,65 L504,0"/> 
            <glyph glyph-name="z" unicode="&#x7A;" horiz-adv-x="428" d=" M428,-90 L416,-141 Q289,-118 244,-71 Q199,-24 199,61 Q199,68 199.5,98 Q200,128 200,137 Q200,197 173,227 Q146,257 82,257 L56,257 L56,317 L82,317 Q147,317 173.5,346 Q200,375 200,437 Q200,445 199.5,475.5 Q199,506 199,513 Q199,598 244,645 Q289,692 416,715 L428,664 Q375,650 344.5,636.5 Q314,623 297.5,603 Q281,583 276.5,561.5 Q272,540 272,503 Q272,493 272.5,466 Q273,439 273,428 Q273,368 246.5,335.5 Q220,303 169,287 Q222,270 247.5,238 Q273,206 273,146 Q273,135 272.5,108 Q272,81 272,71 Q272,-1 300,-33.5 Q328,-66 428,-90"/> 
            <glyph glyph-name="{" unicode="&#x7B;" horiz-adv-x="184" d=" M119,-128 L119,798 L184,798 L184,-128"/> 
            <glyph glyph-name="|" unicode="&#x7C;" horiz-adv-x="426" d=" M67,-141 L54,-90 Q124,-73 158,-51.5 Q192,-30 201.5,-4 Q211,22 211,71 Q211,81 210.5,108 Q210,135 210,146 Q210,206 236.5,238.5 Q263,271 314,287 Q261,304 235.5,336 Q210,368 210,428 Q210,439 210.5,466 Q211,493 211,503 Q211,540 206.5,561.5 Q202,583 185.5,603 Q169,623 138,636.5 Q107,650 54,664 L67,715 Q194,692 239,645 Q284,598 284,513 Q284,506 283.5,475.5 Q283,445 283,437 Q283,375 309,346 Q335,317 400,317 L426,317 L426,257 L400,257 Q335,257 309,228 Q283,199 283,137 Q283,128 283.5,98 Q284,68 284,61 Q284,-24 239,-71 Q194,-118 67,-141"/> 
            <glyph glyph-name="}" unicode="&#x7D;" horiz-adv-x="400" d=" M120,237 L73,250 Q88,307 110,331.5 Q132,356 168,356 Q191,356 238.5,335.5 Q286,315 302,315 Q322,315 332,325.5 Q342,336 354,365 L400,352 Q385,295 363.5,270.5 Q342,246 306,246 Q282,246 235,266.5 Q188,287 172,287 Q152,287 142,276.5 Q132,266 120,237"/> 
            <glyph glyph-name="" unicode="&#x80;" horiz-adv-x="751" d=" M234,256 L553,256 L394,613 M370,705 Q420,705 438.5,723 Q457,741 457,766 L457,768 Q457,793 439,811 Q421,829 395,829 Q369,829 351,811 Q333,793 333,768 L333,766 Q333,741 370,705 M39,0 L346,680 Q291,709 291,766 L291,768 Q291,808 322.5,837.5 Q354,867 395,867 Q436,867 467.5,837.5 Q499,808 499,768 L499,766 Q499,709 444,680 L751,0 L666,0 L584,185 L203,185 L120,0"/> 
            <glyph glyph-name="" unicode="&#x81;" horiz-adv-x="985" d=" M249,256 L491,256 L491,630 L467,630 M17,0 L428,700 L980,700 L980,628 L571,628 L571,389 L935,389 L935,317 L571,317 L571,72 L985,72 L985,0 L491,0 L491,185 L209,185 L100,0"/> 
            <glyph glyph-name="" unicode="&#x82;" horiz-adv-x="610" d=" M340,762 L227,870 L307,907 L402,762 M99,0 L99,700 L605,700 L605,628 L178,628 L178,389 L560,389 L560,317 L178,317 L178,72 L610,72 L610,0"/> 
            <glyph glyph-name="" unicode="&#x83;" horiz-adv-x="610" d=" M208,762 L314,893 L382,893 L488,762 L422,762 L347,829 L272,762 M99,0 L99,700 L605,700 L605,628 L178,628 L178,389 L560,389 L560,317 L178,317 L178,72 L610,72 L610,0"/> 
            <glyph glyph-name="" unicode="&#x84;" horiz-adv-x="783" d=" M389,762 L276,870 L356,907 L451,762 M307,61 Q545,61 622.5,144 Q700,227 700,348 L700,350 Q700,471 621.5,555 Q543,639 424,639 Q305,639 227.5,556 Q150,473 150,352 L150,350 Q150,229 307,61 M580,-12 Q268,-12 168,93.5 Q68,199 68,348 L68,350 Q68,499 169,605.5 Q270,712 426,712 Q582,712 682,606.5 Q782,501 782,352 Q783,351 782,350 Q782,201 580,-12"/> 
            <glyph glyph-name="" unicode="&#x85;" horiz-adv-x="790" d=" M426,60 Q545,60 622.5,143.5 Q700,227 700,348 L700,350 Q700,457 637,537 L256,121 Q326,60 426,60 M213,163 L594,579 Q524,640 424,640 Q305,640 227.5,556.5 Q150,473 150,352 L150,350 Q150,243 213,163 M424,-12 Q297,-12 205,61 L143,-5 L60,-5 L159,103 Q68,203 68,348 L68,350 Q68,499 169,605.5 Q270,712 426,712 Q552,712 645,638 L707,705 L790,705 L691,597 Q782,497 782,352 Q783,351 782,350 Q782,201 681,94.5 Q580,-12 424,-12"/> 
            <glyph glyph-name="" unicode="&#x86;" horiz-adv-x="689" d=" M329,757 L424,902 L504,865 L391,757 M318,0 L318,277 L27,700 L123,700 L359,350 L597,700 L689,700 L398,278 L398,0"/> 
            <glyph glyph-name="" unicode="&#x87;" horiz-adv-x="502" d=" M151,595 L257,726 L325,726 L431,595 L365,595 L290,662 L215,595 M255,51 Q328,51 377.5,90 Q427,129 427,190 L427,238 Q349,260 276,260 Q205,260 165,232 Q125,204 125,156 L125,154 Q125,107 163,79 Q201,51 255,51 M240,-11 Q161,-11 104,31.5 Q47,74 47,150 L47,152 Q47,233 107,277 Q167,321 268,321 Q346,321 426,299 L426,315 Q426,383 386,419 Q346,455 273,455 Q193,455 116,418 L93,481 Q186,525 281,525 Q391,525 448,468 Q502,414 502,316 L502,0 L426,0 L426,77 Q359,-11 240,-11"/> 
            <glyph glyph-name="" unicode="&#x88;" horiz-adv-x="502" d=" M248,595 L343,740 L423,703 L310,595 M255,51 Q328,51 377.5,90 Q427,129 427,190 L427,238 Q349,260 276,260 Q205,260 165,232 Q125,204 125,156 L125,154 Q125,107 163,79 Q201,51 255,51 M240,-11 Q161,-11 104,31.5 Q47,74 47,150 L47,152 Q47,233 107,277 Q167,321 268,321 Q346,321 426,299 L426,315 Q426,383 386,419 Q346,455 273,455 Q193,455 116,418 L93,481 Q186,525 281,525 Q391,525 448,468 Q502,414 502,316 L502,0 L426,0 L426,77 Q359,-11 240,-11"/> 
            <glyph glyph-name="" unicode="&#x89;" horiz-adv-x="502" d=" M175,586 L128,599 Q143,656 165,680 Q187,704 223,704 Q247,704 294,684 Q341,664 357,664 Q376,664 386.5,674.5 Q397,685 409,713 L456,700 Q441,643 419,619 Q397,595 361,595 Q337,595 290,615 Q243,635 227,635 Q208,635 197.5,624.5 Q187,614 175,586 M255,51 Q328,51 377.5,90 Q427,129 427,190 L427,238 Q349,260 276,260 Q205,260 165,232 Q125,204 125,156 L125,154 Q125,107 163,79 Q201,51 255,51 M240,-11 Q161,-11 104,31.5 Q47,74 47,150 L47,152 Q47,233 107,277 Q167,321 268,321 Q346,321 426,299 L426,315 Q426,383 386,419 Q346,455 273,455 Q193,455 116,418 L93,481 Q186,525 281,525 Q391,525 448,468 Q502,414 502,316 L502,0 L426,0 L426,77 Q359,-11 240,-11"/> 
            </font>
</defs>
</svg>
